<svg xmlns="http://www.w3.org/2000/svg" xmlns:xlink="http://www.w3.org/1999/xlink" width="200" zoomAndPan="magnify" viewBox="0 0 150 37.5" height="50" preserveAspectRatio="xMidYMid meet" version="1.0"><defs><g/><clipPath id="9dd2895cb4"><path d="M 21 28 L 41 28 L 41 32.613281 L 21 32.613281 Z M 21 28 " clip-rule="nonzero"/></clipPath><clipPath id="f6806820f2"><path d="M 16.828125 17 L 45.976562 17 L 45.976562 24 L 16.828125 24 Z M 16.828125 17 " clip-rule="nonzero"/></clipPath><clipPath id="bb0851cb67"><path d="M 25 4.253906 L 38 4.253906 L 38 10 L 25 10 Z M 25 4.253906 " clip-rule="nonzero"/></clipPath><clipPath id="d7c59b2530"><path d="M 27 10 L 31 10 L 31 14 L 27 14 Z M 27 10 " clip-rule="nonzero"/></clipPath><clipPath id="cd62aff974"><path d="M 25.234375 6.132812 L 35.644531 13.234375 L 29.875 21.695312 L 19.464844 14.589844 Z M 25.234375 6.132812 " clip-rule="nonzero"/></clipPath><clipPath id="619f93c1b7"><path d="M 25.234375 6.132812 L 35.644531 13.234375 L 29.875 21.695312 L 19.464844 14.589844 Z M 25.234375 6.132812 " clip-rule="nonzero"/></clipPath><clipPath id="9e5f6d0b4e"><path d="M 24 11 L 30 11 L 30 18 L 24 18 Z M 24 11 " clip-rule="nonzero"/></clipPath><clipPath id="9488293e85"><path d="M 25.234375 6.132812 L 35.644531 13.234375 L 29.875 21.695312 L 19.464844 14.589844 Z M 25.234375 6.132812 " clip-rule="nonzero"/></clipPath><clipPath id="a13467fc85"><path d="M 25.234375 6.132812 L 35.644531 13.234375 L 29.875 21.695312 L 19.464844 14.589844 Z M 25.234375 6.132812 " clip-rule="nonzero"/></clipPath><clipPath id="227e4390a2"><path d="M 24 11 L 30 11 L 30 18 L 24 18 Z M 24 11 " clip-rule="nonzero"/></clipPath><clipPath id="d2dd798ecb"><path d="M 25.234375 6.132812 L 35.644531 13.234375 L 29.875 21.695312 L 19.464844 14.589844 Z M 25.234375 6.132812 " clip-rule="nonzero"/></clipPath><clipPath id="02f1f870f7"><path d="M 25.234375 6.132812 L 35.644531 13.234375 L 29.875 21.695312 L 19.464844 14.589844 Z M 25.234375 6.132812 " clip-rule="nonzero"/></clipPath><clipPath id="8787db83e4"><path d="M 26.617188 10.660156 L 30.910156 13.589844 L 27 19.320312 L 22.707031 16.390625 Z M 26.617188 10.660156 " clip-rule="nonzero"/></clipPath><clipPath id="f04e3d18b7"><path d="M 26.617188 10.660156 L 30.910156 13.589844 L 27.011719 19.304688 L 22.71875 16.375 Z M 26.617188 10.660156 " clip-rule="nonzero"/></clipPath><clipPath id="320545540e"><path d="M 24 13 L 29 13 L 29 18 L 24 18 Z M 24 13 " clip-rule="nonzero"/></clipPath><clipPath id="44c169eff1"><path d="M 25.234375 6.132812 L 35.644531 13.234375 L 29.875 21.695312 L 19.464844 14.589844 Z M 25.234375 6.132812 " clip-rule="nonzero"/></clipPath><clipPath id="df95a4f08c"><path d="M 25.234375 6.132812 L 35.644531 13.234375 L 29.875 21.695312 L 19.464844 14.589844 Z M 25.234375 6.132812 " clip-rule="nonzero"/></clipPath><clipPath id="be2ae6368f"><path d="M 25 12 L 30 12 L 30 16 L 25 16 Z M 25 12 " clip-rule="nonzero"/></clipPath><clipPath id="e5620ce1f0"><path d="M 25.234375 6.132812 L 35.644531 13.234375 L 29.875 21.695312 L 19.464844 14.589844 Z M 25.234375 6.132812 " clip-rule="nonzero"/></clipPath><clipPath id="c7711b9af2"><path d="M 25.234375 6.132812 L 35.644531 13.234375 L 29.875 21.695312 L 19.464844 14.589844 Z M 25.234375 6.132812 " clip-rule="nonzero"/></clipPath><clipPath id="ddd48fa572"><path d="M 27 8 L 30 8 L 30 11 L 27 11 Z M 27 8 " clip-rule="nonzero"/></clipPath><clipPath id="46aab6aa15"><path d="M 25.234375 6.132812 L 35.644531 13.234375 L 29.875 21.695312 L 19.464844 14.589844 Z M 25.234375 6.132812 " clip-rule="nonzero"/></clipPath><clipPath id="b8e76482a1"><path d="M 25.234375 6.132812 L 35.644531 13.234375 L 29.875 21.695312 L 19.464844 14.589844 Z M 25.234375 6.132812 " clip-rule="nonzero"/></clipPath><clipPath id="f40a9e90a5"><path d="M 27 8 L 29 8 L 29 10 L 27 10 Z M 27 8 " clip-rule="nonzero"/></clipPath><clipPath id="68bd94c6df"><path d="M 25.234375 6.132812 L 35.644531 13.234375 L 29.875 21.695312 L 19.464844 14.589844 Z M 25.234375 6.132812 " clip-rule="nonzero"/></clipPath><clipPath id="8617f09312"><path d="M 25.234375 6.132812 L 35.644531 13.234375 L 29.875 21.695312 L 19.464844 14.589844 Z M 25.234375 6.132812 " clip-rule="nonzero"/></clipPath><clipPath id="0388798e98"><path d="M 29 10 L 33 10 L 33 12 L 29 12 Z M 29 10 " clip-rule="nonzero"/></clipPath><clipPath id="4f8f2a0ef0"><path d="M 25.234375 6.132812 L 35.644531 13.234375 L 29.875 21.695312 L 19.464844 14.589844 Z M 25.234375 6.132812 " clip-rule="nonzero"/></clipPath><clipPath id="9980d920b6"><path d="M 25.234375 6.132812 L 35.644531 13.234375 L 29.875 21.695312 L 19.464844 14.589844 Z M 25.234375 6.132812 " clip-rule="nonzero"/></clipPath><clipPath id="baf4aecf0a"><path d="M 31 11 L 33 11 L 33 12 L 31 12 Z M 31 11 " clip-rule="nonzero"/></clipPath><clipPath id="81bca3bc34"><path d="M 25.234375 6.132812 L 35.644531 13.234375 L 29.875 21.695312 L 19.464844 14.589844 Z M 25.234375 6.132812 " clip-rule="nonzero"/></clipPath><clipPath id="660b8fb9e4"><path d="M 25.234375 6.132812 L 35.644531 13.234375 L 29.875 21.695312 L 19.464844 14.589844 Z M 25.234375 6.132812 " clip-rule="nonzero"/></clipPath><clipPath id="4617bde31b"><path d="M 28 14 L 32 14 L 32 18 L 28 18 Z M 28 14 " clip-rule="nonzero"/></clipPath><clipPath id="aed320fe28"><path d="M 25.234375 6.132812 L 35.644531 13.234375 L 29.875 21.695312 L 19.464844 14.589844 Z M 25.234375 6.132812 " clip-rule="nonzero"/></clipPath><clipPath id="c57e2a7410"><path d="M 25.234375 6.132812 L 35.644531 13.234375 L 29.875 21.695312 L 19.464844 14.589844 Z M 25.234375 6.132812 " clip-rule="nonzero"/></clipPath><clipPath id="097792bef0"><path d="M 28 13 L 34 13 L 34 17 L 28 17 Z M 28 13 " clip-rule="nonzero"/></clipPath><clipPath id="efae8ec78b"><path d="M 25.234375 6.132812 L 35.644531 13.234375 L 29.875 21.695312 L 19.464844 14.589844 Z M 25.234375 6.132812 " clip-rule="nonzero"/></clipPath><clipPath id="0502ec8111"><path d="M 25.234375 6.132812 L 35.644531 13.234375 L 29.875 21.695312 L 19.464844 14.589844 Z M 25.234375 6.132812 " clip-rule="nonzero"/></clipPath><clipPath id="305107d4d0"><path d="M 28 13 L 34 13 L 34 17 L 28 17 Z M 28 13 " clip-rule="nonzero"/></clipPath><clipPath id="03cb66d4cf"><path d="M 25.234375 6.132812 L 35.644531 13.234375 L 29.875 21.695312 L 19.464844 14.589844 Z M 25.234375 6.132812 " clip-rule="nonzero"/></clipPath><clipPath id="a01b212837"><path d="M 25.234375 6.132812 L 35.644531 13.234375 L 29.875 21.695312 L 19.464844 14.589844 Z M 25.234375 6.132812 " clip-rule="nonzero"/></clipPath><clipPath id="172737188e"><path d="M 29.933594 11.546875 L 34.367188 14.574219 L 32.347656 17.527344 L 27.917969 14.503906 Z M 29.933594 11.546875 " clip-rule="nonzero"/></clipPath><clipPath id="6db80d497f"><path d="M 29.933594 11.546875 L 34.351562 14.5625 L 32.335938 17.515625 L 27.917969 14.503906 Z M 29.933594 11.546875 " clip-rule="nonzero"/></clipPath><clipPath id="6af10974ce"><path d="M 22 11 L 27 11 L 27 14 L 22 14 Z M 22 11 " clip-rule="nonzero"/></clipPath><clipPath id="9c86b71dab"><path d="M 25.234375 6.132812 L 35.644531 13.234375 L 29.875 21.695312 L 19.464844 14.589844 Z M 25.234375 6.132812 " clip-rule="nonzero"/></clipPath><clipPath id="ba83288add"><path d="M 25.234375 6.132812 L 35.644531 13.234375 L 29.875 21.695312 L 19.464844 14.589844 Z M 25.234375 6.132812 " clip-rule="nonzero"/></clipPath><clipPath id="e8a4aa13c8"><path d="M 22 11 L 28 11 L 28 14 L 22 14 Z M 22 11 " clip-rule="nonzero"/></clipPath><clipPath id="e2fa7d3d8f"><path d="M 25.234375 6.132812 L 35.644531 13.234375 L 29.875 21.695312 L 19.464844 14.589844 Z M 25.234375 6.132812 " clip-rule="nonzero"/></clipPath><clipPath id="9e78c4235e"><path d="M 25.234375 6.132812 L 35.644531 13.234375 L 29.875 21.695312 L 19.464844 14.589844 Z M 25.234375 6.132812 " clip-rule="nonzero"/></clipPath><clipPath id="55328746e1"><path d="M 23 8 L 28 8 L 28 14 L 23 14 Z M 23 8 " clip-rule="nonzero"/></clipPath><clipPath id="1a3ee8a56f"><path d="M 25.234375 6.132812 L 35.644531 13.234375 L 29.875 21.695312 L 19.464844 14.589844 Z M 25.234375 6.132812 " clip-rule="nonzero"/></clipPath><clipPath id="266eed6823"><path d="M 25.234375 6.132812 L 35.644531 13.234375 L 29.875 21.695312 L 19.464844 14.589844 Z M 25.234375 6.132812 " clip-rule="nonzero"/></clipPath><clipPath id="389837d3e4"><path d="M 36 15 L 40 15 L 40 20 L 36 20 Z M 36 15 " clip-rule="nonzero"/></clipPath><clipPath id="053781d5ff"><path d="M 32.15625 21.285156 L 38.789062 10.566406 L 47.496094 15.957031 L 40.863281 26.675781 Z M 32.15625 21.285156 " clip-rule="nonzero"/></clipPath><clipPath id="db0b47d80b"><path d="M 32.15625 21.285156 L 38.789062 10.566406 L 47.496094 15.957031 L 40.863281 26.675781 Z M 32.15625 21.285156 " clip-rule="nonzero"/></clipPath><clipPath id="b198acd6a2"><path d="M 37 16 L 44 16 L 44 22 L 37 22 Z M 37 16 " clip-rule="nonzero"/></clipPath><clipPath id="ef83b9fcf7"><path d="M 32.15625 21.285156 L 38.789062 10.566406 L 47.496094 15.957031 L 40.863281 26.675781 Z M 32.15625 21.285156 " clip-rule="nonzero"/></clipPath><clipPath id="78a49b9f54"><path d="M 32.15625 21.285156 L 38.789062 10.566406 L 47.496094 15.957031 L 40.863281 26.675781 Z M 32.15625 21.285156 " clip-rule="nonzero"/></clipPath><clipPath id="2a3e696f28"><path d="M 37 16 L 44 16 L 44 22 L 37 22 Z M 37 16 " clip-rule="nonzero"/></clipPath><clipPath id="7d71e257a3"><path d="M 32.15625 21.285156 L 38.789062 10.566406 L 47.496094 15.957031 L 40.863281 26.675781 Z M 32.15625 21.285156 " clip-rule="nonzero"/></clipPath><clipPath id="8b21a2856e"><path d="M 32.15625 21.285156 L 38.789062 10.566406 L 47.496094 15.957031 L 40.863281 26.675781 Z M 32.15625 21.285156 " clip-rule="nonzero"/></clipPath><clipPath id="1440af38df"><path d="M 36.617188 19.703125 L 39.355469 15.285156 L 45.253906 18.9375 L 42.519531 23.355469 Z M 36.617188 19.703125 " clip-rule="nonzero"/></clipPath><clipPath id="1c471a9f8c"><path d="M 36.617188 19.703125 L 39.355469 15.285156 L 45.238281 18.925781 L 42.5 23.34375 Z M 36.617188 19.703125 " clip-rule="nonzero"/></clipPath><clipPath id="68a291a160"><path d="M 39 17 L 43 17 L 43 22 L 39 22 Z M 39 17 " clip-rule="nonzero"/></clipPath><clipPath id="da28f36437"><path d="M 32.15625 21.285156 L 38.789062 10.566406 L 47.496094 15.957031 L 40.863281 26.675781 Z M 32.15625 21.285156 " clip-rule="nonzero"/></clipPath><clipPath id="4c6158a0f1"><path d="M 32.15625 21.285156 L 38.789062 10.566406 L 47.496094 15.957031 L 40.863281 26.675781 Z M 32.15625 21.285156 " clip-rule="nonzero"/></clipPath><clipPath id="45c48a22ee"><path d="M 38 16 L 42 16 L 42 22 L 38 22 Z M 38 16 " clip-rule="nonzero"/></clipPath><clipPath id="95cc9432b8"><path d="M 32.15625 21.285156 L 38.789062 10.566406 L 47.496094 15.957031 L 40.863281 26.675781 Z M 32.15625 21.285156 " clip-rule="nonzero"/></clipPath><clipPath id="8284321364"><path d="M 32.15625 21.285156 L 38.789062 10.566406 L 47.496094 15.957031 L 40.863281 26.675781 Z M 32.15625 21.285156 " clip-rule="nonzero"/></clipPath><clipPath id="a178c80de1"><path d="M 34 17 L 37 17 L 37 19 L 34 19 Z M 34 17 " clip-rule="nonzero"/></clipPath><clipPath id="7e9bdf788a"><path d="M 32.15625 21.285156 L 38.789062 10.566406 L 47.496094 15.957031 L 40.863281 26.675781 Z M 32.15625 21.285156 " clip-rule="nonzero"/></clipPath><clipPath id="8c05a8420a"><path d="M 32.15625 21.285156 L 38.789062 10.566406 L 47.496094 15.957031 L 40.863281 26.675781 Z M 32.15625 21.285156 " clip-rule="nonzero"/></clipPath><clipPath id="6aaad754b6"><path d="M 34 17 L 36 17 L 36 19 L 34 19 Z M 34 17 " clip-rule="nonzero"/></clipPath><clipPath id="f19afdb964"><path d="M 32.15625 21.285156 L 38.789062 10.566406 L 47.496094 15.957031 L 40.863281 26.675781 Z M 32.15625 21.285156 " clip-rule="nonzero"/></clipPath><clipPath id="a7a3916491"><path d="M 32.15625 21.285156 L 38.789062 10.566406 L 47.496094 15.957031 L 40.863281 26.675781 Z M 32.15625 21.285156 " clip-rule="nonzero"/></clipPath><clipPath id="2d9fe59e95"><path d="M 36 13 L 38 13 L 38 17 L 36 17 Z M 36 13 " clip-rule="nonzero"/></clipPath><clipPath id="c590aefba0"><path d="M 32.15625 21.285156 L 38.789062 10.566406 L 47.496094 15.957031 L 40.863281 26.675781 Z M 32.15625 21.285156 " clip-rule="nonzero"/></clipPath><clipPath id="2d6df5f385"><path d="M 32.15625 21.285156 L 38.789062 10.566406 L 47.496094 15.957031 L 40.863281 26.675781 Z M 32.15625 21.285156 " clip-rule="nonzero"/></clipPath><clipPath id="5aa7d42066"><path d="M 36 13 L 38 13 L 38 15 L 36 15 Z M 36 13 " clip-rule="nonzero"/></clipPath><clipPath id="9faa668d28"><path d="M 32.15625 21.285156 L 38.789062 10.566406 L 47.496094 15.957031 L 40.863281 26.675781 Z M 32.15625 21.285156 " clip-rule="nonzero"/></clipPath><clipPath id="3434a05960"><path d="M 32.15625 21.285156 L 38.789062 10.566406 L 47.496094 15.957031 L 40.863281 26.675781 Z M 32.15625 21.285156 " clip-rule="nonzero"/></clipPath><clipPath id="13a793f353"><path d="M 40 14 L 44 14 L 44 18 L 40 18 Z M 40 14 " clip-rule="nonzero"/></clipPath><clipPath id="bb207de755"><path d="M 32.15625 21.285156 L 38.789062 10.566406 L 47.496094 15.957031 L 40.863281 26.675781 Z M 32.15625 21.285156 " clip-rule="nonzero"/></clipPath><clipPath id="75a002fc7a"><path d="M 32.15625 21.285156 L 38.789062 10.566406 L 47.496094 15.957031 L 40.863281 26.675781 Z M 32.15625 21.285156 " clip-rule="nonzero"/></clipPath><clipPath id="a353dab599"><path d="M 40 14 L 44 14 L 44 19 L 40 19 Z M 40 14 " clip-rule="nonzero"/></clipPath><clipPath id="6f332d4dda"><path d="M 32.15625 21.285156 L 38.789062 10.566406 L 47.496094 15.957031 L 40.863281 26.675781 Z M 32.15625 21.285156 " clip-rule="nonzero"/></clipPath><clipPath id="c40061dca3"><path d="M 32.15625 21.285156 L 38.789062 10.566406 L 47.496094 15.957031 L 40.863281 26.675781 Z M 32.15625 21.285156 " clip-rule="nonzero"/></clipPath><clipPath id="3c67b17737"><path d="M 38 12 L 43 12 L 43 18 L 38 18 Z M 38 12 " clip-rule="nonzero"/></clipPath><clipPath id="916161331e"><path d="M 32.15625 21.285156 L 38.789062 10.566406 L 47.496094 15.957031 L 40.863281 26.675781 Z M 32.15625 21.285156 " clip-rule="nonzero"/></clipPath><clipPath id="78c7f7b646"><path d="M 32.15625 21.285156 L 38.789062 10.566406 L 47.496094 15.957031 L 40.863281 26.675781 Z M 32.15625 21.285156 " clip-rule="nonzero"/></clipPath><clipPath id="e42592b7f2"><path d="M 38 12 L 43 12 L 43 19 L 38 19 Z M 38 12 " clip-rule="nonzero"/></clipPath><clipPath id="faeff34592"><path d="M 32.15625 21.285156 L 38.789062 10.566406 L 47.496094 15.957031 L 40.863281 26.675781 Z M 32.15625 21.285156 " clip-rule="nonzero"/></clipPath><clipPath id="c5563f5828"><path d="M 32.15625 21.285156 L 38.789062 10.566406 L 47.496094 15.957031 L 40.863281 26.675781 Z M 32.15625 21.285156 " clip-rule="nonzero"/></clipPath><clipPath id="ed8c4ead4b"><path d="M 37.359375 16.351562 L 40.183594 11.789062 L 43.226562 13.671875 L 40.398438 18.234375 Z M 37.359375 16.351562 " clip-rule="nonzero"/></clipPath><clipPath id="8010ffbe2e"><path d="M 37.359375 16.351562 L 40.171875 11.800781 L 43.214844 13.6875 L 40.398438 18.234375 Z M 37.359375 16.351562 " clip-rule="nonzero"/></clipPath><clipPath id="ed6312f778"><path d="M 37 19 L 40 19 L 40 24 L 37 24 Z M 37 19 " clip-rule="nonzero"/></clipPath><clipPath id="67b619720a"><path d="M 32.15625 21.285156 L 38.789062 10.566406 L 47.496094 15.957031 L 40.863281 26.675781 Z M 32.15625 21.285156 " clip-rule="nonzero"/></clipPath><clipPath id="607b5efcf2"><path d="M 32.15625 21.285156 L 38.789062 10.566406 L 47.496094 15.957031 L 40.863281 26.675781 Z M 32.15625 21.285156 " clip-rule="nonzero"/></clipPath><clipPath id="e9cade234e"><path d="M 34 19 L 40 19 L 40 23 L 34 23 Z M 34 19 " clip-rule="nonzero"/></clipPath><clipPath id="a67152b452"><path d="M 32.15625 21.285156 L 38.789062 10.566406 L 47.496094 15.957031 L 40.863281 26.675781 Z M 32.15625 21.285156 " clip-rule="nonzero"/></clipPath><clipPath id="8d9f00ab1d"><path d="M 32.15625 21.285156 L 38.789062 10.566406 L 47.496094 15.957031 L 40.863281 26.675781 Z M 32.15625 21.285156 " clip-rule="nonzero"/></clipPath><clipPath id="fc3aabd594"><path d="M 34 18 L 40 18 L 40 24 L 34 24 Z M 34 18 " clip-rule="nonzero"/></clipPath><clipPath id="00d8ec88f5"><path d="M 32.15625 21.285156 L 38.789062 10.566406 L 47.496094 15.957031 L 40.863281 26.675781 Z M 32.15625 21.285156 " clip-rule="nonzero"/></clipPath><clipPath id="b70868df16"><path d="M 32.15625 21.285156 L 38.789062 10.566406 L 47.496094 15.957031 L 40.863281 26.675781 Z M 32.15625 21.285156 " clip-rule="nonzero"/></clipPath></defs><g clip-path="url(#9dd2895cb4)"><path fill="#fc0393" d="M 21.695312 28.800781 C 21.890625 31.308594 26.851562 32.742188 31.121094 32.675781 C 35.558594 32.601562 40.851562 31.042969 40.597656 28.433594 C 40.597656 28.425781 40.59375 28.414062 40.59375 28.40625 C 38.300781 29.476562 34.847656 30.234375 31.652344 30.28125 C 28.164062 30.328125 24.1875 29.960938 21.695312 28.800781 Z M 21.695312 28.800781 " fill-opacity="1" fill-rule="nonzero"/></g><path fill="#702792" d="M 43.191406 25.621094 C 43.128906 25.320312 42.957031 25.042969 42.695312 24.785156 C 41.667969 25.433594 40.226562 26.03125 38.546875 26.511719 C 36.410156 27.117188 33.886719 27.53125 31.328125 27.609375 C 27.972656 27.710938 25.046875 27.425781 22.78125 26.804688 C 21.339844 26.410156 20.167969 25.882812 19.320312 25.230469 C 19.273438 25.378906 19.246094 25.535156 19.242188 25.695312 C 19.203125 27.085938 20.171875 28.09375 21.695312 28.800781 C 24.1875 29.960938 28.164062 30.328125 31.652344 30.28125 C 34.847656 30.234375 38.300781 29.476562 40.59375 28.40625 C 42.332031 27.597656 43.40625 26.609375 43.191406 25.621094 Z M 43.191406 25.621094 " fill-opacity="1" fill-rule="nonzero"/><path fill="#fc0393" d="M 44.355469 22.402344 C 44.257812 21.988281 43.9375 21.609375 43.441406 21.265625 C 42.25 21.949219 40.609375 22.570312 38.722656 23.050781 C 36.5 23.613281 33.941406 23.976562 31.371094 23.996094 C 28.375 24.019531 25.136719 23.730469 22.480469 23.070312 C 20.738281 22.640625 19.242188 22.046875 18.234375 21.277344 C 17.953125 21.601562 17.789062 21.972656 17.777344 22.390625 C 17.753906 23.5 18.300781 24.453125 19.316406 25.230469 C 20.164062 25.882812 21.339844 26.410156 22.78125 26.804688 C 25.046875 27.425781 27.972656 27.710938 31.328125 27.609375 C 33.882812 27.53125 36.40625 27.117188 38.546875 26.511719 C 40.226562 26.03125 41.664062 25.433594 42.695312 24.785156 C 43.898438 24.023438 44.542969 23.195312 44.355469 22.402344 Z M 44.355469 22.402344 " fill-opacity="1" fill-rule="nonzero"/><g clip-path="url(#f6806820f2)"><path fill="#702792" d="M 45.4375 18.734375 C 45.277344 18.09375 44.542969 17.539062 43.425781 17.074219 C 42.164062 18.023438 39.894531 18.867188 37.292969 19.410156 C 35.515625 19.777344 33.585938 20.003906 31.714844 20.027344 C 28.960938 20.0625 25.890625 19.875 23.316406 19.34375 C 21.050781 18.875 19.164062 18.140625 18.21875 17.058594 C 17.402344 17.515625 16.886719 18.089844 16.863281 18.8125 C 16.832031 19.78125 17.34375 20.597656 18.234375 21.277344 C 19.242188 22.046875 20.738281 22.636719 22.480469 23.070312 C 25.136719 23.730469 28.375 24.019531 31.371094 23.996094 C 33.941406 23.976562 36.5 23.613281 38.722656 23.050781 C 40.609375 22.570312 42.25 21.949219 43.441406 21.265625 C 44.863281 20.453125 45.648438 19.558594 45.4375 18.734375 Z M 45.4375 18.734375 " fill-opacity="1" fill-rule="nonzero"/></g><path fill="#fc0393" d="M 44.457031 15.234375 C 44.292969 14.554688 43.523438 13.976562 42.367188 13.496094 C 41.347656 14.363281 39.597656 15.148438 37.554688 15.707031 C 35.742188 16.199219 33.703125 16.511719 31.742188 16.539062 C 29.007812 16.574219 25.945312 16.324219 23.515625 15.640625 C 21.648438 15.117188 20.15625 14.339844 19.464844 13.238281 C 18.339844 13.742188 17.582031 14.414062 17.558594 15.308594 C 17.535156 15.972656 17.777344 16.550781 18.21875 17.054688 C 19.164062 18.140625 21.046875 18.875 23.316406 19.34375 C 25.890625 19.871094 28.960938 20.0625 31.714844 20.027344 C 33.585938 20.003906 35.515625 19.777344 37.292969 19.40625 C 39.894531 18.867188 42.164062 18.023438 43.425781 17.074219 C 44.207031 16.484375 44.605469 15.855469 44.457031 15.234375 Z M 44.457031 15.234375 " fill-opacity="1" fill-rule="nonzero"/><path fill="#702792" d="M 43.285156 11.65625 C 43.109375 10.824219 42.113281 10.144531 40.65625 9.609375 C 40.191406 10.632812 38.574219 11.546875 36.550781 12.152344 C 35.042969 12.605469 33.3125 12.886719 31.667969 12.914062 C 29.28125 12.953125 26.605469 12.761719 24.652344 12.050781 C 23.101562 11.484375 22.007812 10.589844 21.878906 9.214844 C 20.277344 9.742188 19.082031 10.535156 19.050781 11.734375 C 19.035156 12.292969 19.183594 12.792969 19.464844 13.238281 C 20.15625 14.339844 21.648438 15.117188 23.515625 15.640625 C 25.949219 16.324219 29.007812 16.574219 31.742188 16.539062 C 33.703125 16.511719 35.742188 16.199219 37.554688 15.707031 C 39.597656 15.148438 41.351562 14.363281 42.367188 13.496094 C 43.066406 12.90625 43.417969 12.273438 43.285156 11.65625 Z M 43.285156 11.65625 " fill-opacity="1" fill-rule="nonzero"/><path fill="#fc0393" d="M 40.769531 8.789062 C 40.570312 7.695312 39.0625 6.886719 37.0625 6.351562 C 37.089844 6.421875 37.113281 6.492188 37.125 6.566406 C 37.246094 7.28125 36.554688 7.964844 35.492188 8.484375 C 34.359375 9.039062 32.800781 9.40625 31.347656 9.429688 C 29.460938 9.464844 27.285156 9.25 26.070312 8.394531 C 25.476562 7.972656 25.109375 7.398438 25.125 6.617188 C 25.128906 6.464844 25.15625 6.320312 25.203125 6.1875 C 23.421875 6.644531 21.894531 7.449219 21.863281 8.863281 C 21.859375 8.984375 21.867188 9.101562 21.878906 9.214844 C 22.007812 10.589844 23.101562 11.484375 24.652344 12.050781 C 26.605469 12.761719 29.28125 12.953125 31.667969 12.914062 C 33.3125 12.886719 35.042969 12.605469 36.550781 12.15625 C 38.574219 11.546875 40.191406 10.632812 40.65625 9.609375 C 40.777344 9.34375 40.820312 9.070312 40.769531 8.789062 Z M 40.769531 8.789062 " fill-opacity="1" fill-rule="nonzero"/><g clip-path="url(#bb0851cb67)"><path fill="#702792" d="M 37.125 6.566406 C 37.113281 6.492188 37.089844 6.421875 37.0625 6.351562 C 36.539062 5.015625 33.335938 4.34375 30.753906 4.34375 C 30.753906 4.34375 25.871094 4.257812 25.199219 6.1875 C 25.15625 6.320312 25.128906 6.464844 25.125 6.617188 C 25.109375 7.398438 25.472656 7.972656 26.070312 8.394531 C 27.285156 9.25 29.460938 9.464844 31.347656 9.429688 C 32.800781 9.40625 34.359375 9.035156 35.492188 8.484375 C 36.554688 7.964844 37.246094 7.28125 37.125 6.566406 Z M 37.125 6.566406 " fill-opacity="1" fill-rule="nonzero"/></g><path fill="#fbc751" d="M 29.40625 22.699219 C 27.453125 19.125 23.398438 21.285156 26.320312 24.808594 C 27.101562 25.753906 28.195312 26.875 29.6875 27.890625 C 30.894531 27.09375 34.785156 22.730469 33.148438 21.136719 C 31.054688 19.09375 29.40625 22.699219 29.40625 22.699219 Z M 29.40625 22.699219 " fill-opacity="1" fill-rule="nonzero"/><g clip-path="url(#d7c59b2530)"><g clip-path="url(#cd62aff974)"><g clip-path="url(#619f93c1b7)"><path fill="#000000" d="M 30.0625 13.300781 C 30.535156 12.605469 30.445312 11.390625 29.671875 10.863281 C 28.898438 10.332031 27.734375 10.691406 27.261719 11.382812 C 26.785156 12.074219 27.804688 11.933594 28.578125 12.464844 C 29.351562 12.992188 29.589844 13.992188 30.0625 13.300781 " fill-opacity="1" fill-rule="nonzero"/><path fill="#000000" d="M 29.328125 13.046875 C 29.449219 13.195312 29.554688 13.320312 29.648438 13.382812 C 29.714844 13.429688 29.796875 13.484375 29.96875 13.234375 C 30.398438 12.609375 30.335938 11.449219 29.609375 10.953125 C 28.886719 10.457031 27.78125 10.816406 27.351562 11.445312 C 27.183594 11.695312 27.265625 11.753906 27.332031 11.800781 C 27.425781 11.863281 27.582031 11.914062 27.761719 11.976562 C 28.023438 12.0625 28.347656 12.171875 28.640625 12.371094 C 28.933594 12.570312 29.152344 12.835938 29.328125 13.046875 Z M 27.167969 11.316406 C 27.664062 10.589844 28.894531 10.195312 29.734375 10.769531 C 30.578125 11.34375 30.652344 12.636719 30.15625 13.363281 C 29.957031 13.652344 29.746094 13.722656 29.523438 13.566406 C 29.402344 13.488281 29.289062 13.347656 29.15625 13.1875 C 28.980469 12.976562 28.78125 12.738281 28.515625 12.554688 C 28.246094 12.375 27.953125 12.277344 27.691406 12.1875 C 27.496094 12.121094 27.324219 12.066406 27.207031 11.984375 C 26.980469 11.832031 26.96875 11.605469 27.167969 11.316406 " fill-opacity="1" fill-rule="nonzero"/></g></g></g><g clip-path="url(#9e5f6d0b4e)"><g clip-path="url(#9488293e85)"><g clip-path="url(#a13467fc85)"><path fill="#fbc122" d="M 28.757812 12.15625 C 29.886719 12.929688 30.230469 14.390625 29.277344 15.785156 C 28.402344 17.066406 27.019531 17.679688 25.90625 17.144531 C 25.8125 17.101562 25.195312 16.675781 25.109375 16.59375 C 24.238281 15.742188 24.320312 14.253906 25.1875 12.984375 C 26.140625 11.59375 27.628906 11.382812 28.757812 12.15625 " fill-opacity="1" fill-rule="nonzero"/></g></g></g><g clip-path="url(#227e4390a2)"><g clip-path="url(#d2dd798ecb)"><g clip-path="url(#02f1f870f7)"><g clip-path="url(#8787db83e4)"><g clip-path="url(#f04e3d18b7)"><path fill="#000000" d="M 25.21875 13.132812 C 24.359375 14.386719 24.324219 15.808594 25.125 16.59375 C 25.253906 16.71875 25.800781 17.082031 25.890625 17.125 C 26.921875 17.617188 28.25 17.074219 29.121094 15.800781 C 29.980469 14.542969 29.78125 13.117188 28.628906 12.332031 C 27.480469 11.546875 26.078125 11.875 25.21875 13.132812 Z M 24.984375 16.824219 C 24.976562 16.78125 24.953125 16.742188 24.925781 16.714844 C 24.507812 16.28125 24.300781 15.699219 24.320312 15.023438 C 24.339844 14.363281 24.59375 13.644531 25.03125 13.003906 C 25.503906 12.316406 26.121094 11.875 26.820312 11.730469 C 27.480469 11.59375 28.167969 11.742188 28.757812 12.144531 C 29.347656 12.546875 29.734375 13.136719 29.847656 13.800781 C 29.964844 14.503906 29.78125 15.238281 29.308594 15.929688 C 28.40625 17.25 27.023438 17.832031 25.910156 17.382812 C 25.851562 17.359375 25.789062 17.359375 25.734375 17.382812 C 25.390625 17.53125 25.015625 18.007812 24.910156 17.867188 C 24.761719 17.667969 25.058594 17.175781 24.984375 16.824219 " fill-opacity="1" fill-rule="nonzero"/></g></g></g></g></g><g clip-path="url(#320545540e)"><g clip-path="url(#44c169eff1)"><g clip-path="url(#df95a4f08c)"><path fill="#000000" d="M 24.523438 14.898438 C 26.890625 15.3125 27.804688 17.042969 27.8125 17.0625 L 28.734375 16.523438 C 28.6875 16.433594 27.589844 14.351562 24.761719 13.855469 L 24.523438 14.898438 " fill-opacity="1" fill-rule="nonzero"/></g></g></g><g clip-path="url(#be2ae6368f)"><g clip-path="url(#e5620ce1f0)"><g clip-path="url(#c7711b9af2)"><path fill="#000000" d="M 25.132812 12.933594 C 27.507812 13.335938 29.339844 15.664062 29.347656 15.683594 L 29.726562 14.636719 C 29.679688 14.546875 29.011719 12.558594 26.175781 12.078125 L 25.132812 12.933594 " fill-opacity="1" fill-rule="nonzero"/></g></g></g><g clip-path="url(#ddd48fa572)"><g clip-path="url(#46aab6aa15)"><g clip-path="url(#b8e76482a1)"><path fill="#000000" d="M 28.660156 10.699219 L 28.859375 10.804688 C 28.867188 10.785156 29.023438 10.40625 29.113281 9.964844 C 29.246094 9.335938 29.183594 8.921875 28.925781 8.699219 C 28.675781 8.484375 28.296875 8.480469 27.761719 8.691406 L 27.886719 8.867188 C 28.328125 8.695312 28.644531 8.675781 28.804688 8.8125 C 29.140625 9.105469 28.894531 10.125 28.660156 10.699219 " fill-opacity="1" fill-rule="nonzero"/></g></g></g><g clip-path="url(#f40a9e90a5)"><g clip-path="url(#68bd94c6df)"><g clip-path="url(#8617f09312)"><path fill="#000000" d="M 27.882812 8.511719 C 27.675781 8.660156 27.628906 8.90625 27.777344 9.054688 C 27.925781 9.207031 28.21875 9.207031 28.425781 9.054688 C 28.632812 8.90625 28.679688 8.660156 28.53125 8.507812 C 28.378906 8.359375 28.089844 8.359375 27.882812 8.511719 " fill-opacity="1" fill-rule="nonzero"/></g></g></g><g clip-path="url(#0388798e98)"><g clip-path="url(#4f8f2a0ef0)"><g clip-path="url(#9980d920b6)"><path fill="#000000" d="M 30.152344 11.714844 L 29.980469 11.570312 C 29.992188 11.558594 30.289062 11.277344 30.667969 11.03125 C 31.210938 10.679688 31.617188 10.585938 31.917969 10.746094 C 32.207031 10.898438 32.347656 11.253906 32.347656 11.828125 L 32.136719 11.773438 C 32.140625 11.300781 32.042969 11 31.855469 10.902344 C 31.460938 10.691406 30.597656 11.289062 30.152344 11.714844 " fill-opacity="1" fill-rule="nonzero"/></g></g></g><g clip-path="url(#baf4aecf0a)"><g clip-path="url(#81bca3bc34)"><g clip-path="url(#660b8fb9e4)"><path fill="#000000" d="M 32.472656 11.648438 C 32.40625 11.894531 32.195312 12.027344 32 11.945312 C 31.808594 11.859375 31.703125 11.589844 31.765625 11.34375 C 31.832031 11.09375 32.042969 10.960938 32.238281 11.046875 C 32.433594 11.128906 32.539062 11.402344 32.472656 11.648438 " fill-opacity="1" fill-rule="nonzero"/></g></g></g><g clip-path="url(#4617bde31b)"><g clip-path="url(#aed320fe28)"><g clip-path="url(#c57e2a7410)"><path fill="#1cd4f0" d="M 28.203125 14.308594 C 28.203125 14.308594 30.6875 14.304688 31.183594 15.75 C 31.679688 17.195312 30.761719 18.019531 29.695312 17.660156 C 28.628906 17.300781 28.203125 14.308594 28.203125 14.308594 " fill-opacity="1" fill-rule="nonzero"/><path fill="#000000" d="M 28.324219 14.417969 C 28.414062 14.945312 28.792969 16.949219 29.558594 17.472656 C 29.613281 17.511719 29.671875 17.539062 29.730469 17.558594 C 30.199219 17.71875 30.644531 17.636719 30.925781 17.34375 C 31.25 17.003906 31.308594 16.4375 31.089844 15.789062 C 30.984375 15.484375 30.773438 15.222656 30.464844 15.011719 C 29.75 14.523438 28.6875 14.433594 28.324219 14.417969 Z M 28.105469 14.328125 L 28.085938 14.207031 L 28.210938 14.207031 C 28.269531 14.203125 29.664062 14.207031 30.585938 14.839844 C 30.929688 15.074219 31.160156 15.367188 31.28125 15.710938 C 31.527344 16.4375 31.449219 17.082031 31.066406 17.484375 C 30.726562 17.839844 30.199219 17.941406 29.65625 17.757812 C 29.582031 17.734375 29.507812 17.695312 29.4375 17.644531 C 28.492188 17 28.121094 14.4375 28.105469 14.328125 " fill-opacity="1" fill-rule="nonzero"/></g></g></g><g clip-path="url(#097792bef0)"><g clip-path="url(#efae8ec78b)"><g clip-path="url(#0502ec8111)"><path fill="#1cd4f0" d="M 28.25 14.289062 C 28.25 14.289062 30.976562 12.398438 32.574219 13.488281 C 34.171875 14.582031 33.757812 16.113281 32.324219 16.558594 C 30.890625 17.003906 28.25 14.289062 28.25 14.289062 " fill-opacity="1" fill-rule="nonzero"/></g></g></g><g clip-path="url(#305107d4d0)"><g clip-path="url(#03cb66d4cf)"><g clip-path="url(#a01b212837)"><g clip-path="url(#172737188e)"><g clip-path="url(#6db80d497f)"><path fill="#000000" d="M 29.847656 13.574219 C 29.191406 13.828125 28.640625 14.160156 28.414062 14.304688 C 28.652344 14.535156 29.339844 15.191406 30.121094 15.722656 C 30.121094 15.722656 30.121094 15.726562 30.121094 15.726562 C 31.046875 16.359375 31.800781 16.613281 32.300781 16.457031 C 32.9375 16.261719 33.378906 15.828125 33.476562 15.308594 C 33.589844 14.703125 33.242188 14.074219 32.515625 13.574219 C 31.726562 13.035156 30.628906 13.277344 29.847656 13.574219 Z M 28.175781 14.363281 L 28.09375 14.277344 L 28.199219 14.203125 C 28.226562 14.183594 28.902344 13.71875 29.785156 13.382812 C 30.96875 12.929688 31.953125 12.9375 32.636719 13.402344 C 33.425781 13.945312 33.804688 14.648438 33.675781 15.335938 C 33.5625 15.941406 33.066406 16.433594 32.347656 16.65625 C 31.78125 16.832031 30.992188 16.578125 30 15.898438 C 29.023438 15.230469 28.1875 14.375 28.175781 14.363281 " fill-opacity="1" fill-rule="nonzero"/></g></g></g></g></g><g clip-path="url(#6af10974ce)"><g clip-path="url(#9c86b71dab)"><g clip-path="url(#ba83288add)"><path fill="#1cd4f0" d="M 27 13.484375 C 27 13.484375 26.097656 11.171875 24.570312 11.238281 C 23.042969 11.300781 22.613281 12.457031 23.335938 13.320312 C 24.058594 14.179688 27 13.484375 27 13.484375 " fill-opacity="1" fill-rule="nonzero"/></g></g></g><g clip-path="url(#e8a4aa13c8)"><g clip-path="url(#e2fa7d3d8f)"><g clip-path="url(#9e78c4235e)"><path fill="#000000" d="M 25.519531 11.636719 C 25.210938 11.425781 24.890625 11.328125 24.570312 11.339844 C 23.882812 11.371094 23.378906 11.632812 23.179688 12.058594 C 23.011719 12.425781 23.097656 12.871094 23.414062 13.25 C 23.453125 13.296875 23.503906 13.339844 23.558594 13.378906 C 24.324219 13.898438 26.332031 13.523438 26.855469 13.414062 C 26.707031 13.082031 26.234375 12.125 25.519531 11.636719 Z M 23.441406 13.554688 C 23.371094 13.503906 23.308594 13.449219 23.257812 13.390625 C 22.890625 12.953125 22.792969 12.425781 22.996094 11.980469 C 23.230469 11.472656 23.804688 11.167969 24.570312 11.132812 C 24.9375 11.117188 25.292969 11.226562 25.636719 11.460938 C 26.558594 12.089844 27.070312 13.386719 27.09375 13.441406 L 27.136719 13.558594 L 27.015625 13.585938 C 26.910156 13.613281 24.386719 14.199219 23.441406 13.554688 " fill-opacity="1" fill-rule="nonzero"/></g></g></g><g clip-path="url(#55328746e1)"><g clip-path="url(#1a3ee8a56f)"><g clip-path="url(#266eed6823)"><path fill="#1cd4f0" d="M 27 13.433594 C 27 13.433594 27.765625 10.207031 26.167969 9.117188 C 24.570312 8.027344 23.296875 8.972656 23.402344 10.46875 C 23.511719 11.964844 27 13.433594 27 13.433594 " fill-opacity="1" fill-rule="nonzero"/><path fill="#000000" d="M 26.109375 9.203125 C 25.382812 8.710938 24.667969 8.613281 24.144531 8.941406 C 23.695312 9.222656 23.457031 9.789062 23.503906 10.457031 C 23.542969 10.976562 24.050781 11.585938 24.980469 12.21875 C 25.761719 12.75 26.621094 13.152344 26.929688 13.289062 C 26.980469 13.027344 27.089844 12.390625 27.082031 11.6875 C 27.074219 10.851562 26.898438 9.742188 26.109375 9.203125 Z M 24.863281 12.394531 C 23.871094 11.714844 23.34375 11.074219 23.300781 10.484375 C 23.25 9.734375 23.527344 9.09375 24.046875 8.765625 C 24.640625 8.394531 25.433594 8.488281 26.226562 9.027344 C 26.910156 9.492188 27.273438 10.410156 27.285156 11.675781 C 27.292969 12.625 27.105469 13.421875 27.097656 13.453125 L 27.066406 13.578125 L 26.957031 13.53125 C 26.945312 13.527344 25.839844 13.058594 24.863281 12.394531 " fill-opacity="1" fill-rule="nonzero"/></g></g></g><g clip-path="url(#389837d3e4)"><g clip-path="url(#053781d5ff)"><g clip-path="url(#db0b47d80b)"><path fill="#050606" d="M 39.101562 16.144531 C 38.390625 15.699219 37.179688 15.84375 36.683594 16.640625 C 36.191406 17.4375 36.601562 18.585938 37.3125 19.027344 C 38.023438 19.46875 37.839844 18.460938 38.332031 17.664062 C 38.828125 16.867188 39.816406 16.585938 39.101562 16.144531 " fill-opacity="1" fill-rule="nonzero"/><path fill="#050606" d="M 38.882812 16.886719 C 39.023438 16.761719 39.144531 16.648438 39.203125 16.554688 C 39.246094 16.484375 39.300781 16.398438 39.042969 16.238281 C 38.394531 15.839844 37.242188 15.953125 36.78125 16.699219 C 36.316406 17.445312 36.726562 18.53125 37.371094 18.933594 C 37.628906 19.09375 37.683594 19.007812 37.726562 18.9375 C 37.785156 18.84375 37.828125 18.683594 37.882812 18.5 C 37.957031 18.234375 38.050781 17.90625 38.238281 17.605469 C 38.425781 17.304688 38.679688 17.074219 38.882812 16.886719 Z M 37.253906 19.125 C 36.503906 18.660156 36.050781 17.449219 36.589844 16.582031 C 37.128906 15.714844 38.414062 15.582031 39.160156 16.046875 C 39.460938 16.230469 39.539062 16.441406 39.394531 16.671875 C 39.320312 16.792969 39.1875 16.914062 39.03125 17.054688 C 38.828125 17.238281 38.597656 17.449219 38.429688 17.722656 C 38.257812 17.996094 38.171875 18.296875 38.097656 18.5625 C 38.039062 18.761719 37.992188 18.933594 37.914062 19.054688 C 37.773438 19.285156 37.550781 19.308594 37.253906 19.125 " fill-opacity="1" fill-rule="nonzero"/></g></g></g><g clip-path="url(#b198acd6a2)"><g clip-path="url(#ef83b9fcf7)"><g clip-path="url(#78a49b9f54)"><path fill="#fbc122" d="M 38.019531 17.496094 C 38.738281 16.335938 40.1875 15.925781 41.617188 16.816406 C 42.941406 17.636719 43.613281 18.988281 43.128906 20.125 C 43.089844 20.21875 42.691406 20.855469 42.613281 20.945312 C 41.800781 21.851562 40.3125 21.839844 39.007812 21.027344 C 37.574219 20.136719 37.296875 18.660156 38.019531 17.496094 " fill-opacity="1" fill-rule="nonzero"/></g></g></g><g clip-path="url(#2a3e696f28)"><g clip-path="url(#7d71e257a3)"><g clip-path="url(#8b21a2856e)"><g clip-path="url(#1440af38df)"><g clip-path="url(#1c471a9f8c)"><path fill="#050606" d="M 39.152344 20.992188 C 40.441406 21.792969 41.863281 21.765625 42.613281 20.929688 C 42.734375 20.796875 43.070312 20.234375 43.113281 20.140625 C 43.558594 19.085938 42.953125 17.785156 41.644531 16.972656 C 40.351562 16.167969 38.933594 16.433594 38.199219 17.617188 C 37.464844 18.800781 37.855469 20.1875 39.152344 20.992188 Z M 42.847656 21.058594 C 42.808594 21.070312 42.769531 21.09375 42.742188 21.125 C 42.328125 21.558594 41.757812 21.792969 41.082031 21.804688 C 40.417969 21.8125 39.691406 21.59375 39.03125 21.183594 C 38.320312 20.742188 37.855469 20.144531 37.679688 19.453125 C 37.515625 18.796875 37.628906 18.105469 38.007812 17.5 C 38.382812 16.890625 38.953125 16.480469 39.613281 16.335938 C 40.308594 16.1875 41.054688 16.339844 41.765625 16.78125 C 43.125 17.625 43.765625 18.976562 43.367188 20.109375 C 43.34375 20.167969 43.347656 20.230469 43.375 20.289062 C 43.539062 20.625 44.03125 20.976562 43.894531 21.089844 C 43.703125 21.246094 43.195312 20.972656 42.847656 21.058594 " fill-opacity="1" fill-rule="nonzero"/></g></g></g></g></g><g clip-path="url(#68a291a160)"><g clip-path="url(#da28f36437)"><g clip-path="url(#4c6158a0f1)"><path fill="#050606" d="M 40.945312 21.605469 C 41.253906 19.222656 42.945312 18.230469 42.960938 18.222656 L 42.382812 17.328125 C 42.296875 17.378906 40.261719 18.566406 39.894531 21.414062 L 40.945312 21.605469 " fill-opacity="1" fill-rule="nonzero"/></g></g></g><g clip-path="url(#45c48a22ee)"><g clip-path="url(#95cc9432b8)"><g clip-path="url(#8284321364)"><path fill="#050606" d="M 38.957031 21.085938 C 39.253906 18.695312 41.5 16.761719 41.515625 16.753906 L 40.453125 16.417969 C 40.367188 16.46875 38.410156 17.226562 38.054688 20.082031 L 38.957031 21.085938 " fill-opacity="1" fill-rule="nonzero"/></g></g></g><g clip-path="url(#a178c80de1)"><g clip-path="url(#7e9bdf788a)"><g clip-path="url(#8c05a8420a)"><path fill="#050606" d="M 36.566406 17.660156 L 36.660156 17.453125 C 36.644531 17.449219 36.261719 17.3125 35.8125 17.238281 C 35.179688 17.136719 34.769531 17.21875 34.554688 17.484375 C 34.355469 17.742188 34.367188 18.121094 34.601562 18.644531 L 34.773438 18.511719 C 34.578125 18.082031 34.546875 17.765625 34.675781 17.601562 C 34.957031 17.25 35.984375 17.449219 36.566406 17.660156 " fill-opacity="1" fill-rule="nonzero"/></g></g></g><g clip-path="url(#6aaad754b6)"><g clip-path="url(#f19afdb964)"><g clip-path="url(#a7a3916491)"><path fill="#050606" d="M 34.414062 18.535156 C 34.574219 18.734375 34.820312 18.769531 34.964844 18.613281 C 35.109375 18.457031 35.09375 18.167969 34.9375 17.96875 C 34.777344 17.769531 34.53125 17.730469 34.386719 17.886719 C 34.242188 18.042969 34.253906 18.332031 34.414062 18.535156 " fill-opacity="1" fill-rule="nonzero"/></g></g></g><g clip-path="url(#2d9fe59e95)"><g clip-path="url(#c590aefba0)"><g clip-path="url(#2d6df5f385)"><path fill="#050606" d="M 37.515625 16.125 L 37.378906 16.300781 C 37.363281 16.289062 37.070312 16.003906 36.808594 15.636719 C 36.433594 15.113281 36.324219 14.710938 36.46875 14.402344 C 36.609375 14.105469 36.957031 13.949219 37.53125 13.925781 L 37.484375 14.136719 C 37.015625 14.15625 36.71875 14.269531 36.628906 14.460938 C 36.433594 14.863281 37.070312 15.695312 37.515625 16.125 " fill-opacity="1" fill-rule="nonzero"/></g></g></g><g clip-path="url(#5aa7d42066)"><g clip-path="url(#9faa668d28)"><g clip-path="url(#3434a05960)"><path fill="#050606" d="M 37.347656 13.808594 C 37.597656 13.863281 37.738281 14.070312 37.664062 14.265625 C 37.585938 14.464844 37.320312 14.582031 37.070312 14.527344 C 36.820312 14.472656 36.679688 14.269531 36.753906 14.070312 C 36.832031 13.871094 37.09375 13.753906 37.347656 13.808594 " fill-opacity="1" fill-rule="nonzero"/></g></g></g><g clip-path="url(#13a793f353)"><g clip-path="url(#bb207de755)"><g clip-path="url(#75a002fc7a)"><path fill="#1cd4f0" d="M 40.195312 17.953125 C 40.195312 17.953125 40.078125 15.472656 41.5 14.914062 C 42.925781 14.355469 43.785156 15.234375 43.472656 16.316406 C 43.164062 17.398438 40.195312 17.953125 40.195312 17.953125 " fill-opacity="1" fill-rule="nonzero"/></g></g></g><g clip-path="url(#a353dab599)"><g clip-path="url(#6f332d4dda)"><g clip-path="url(#c40061dca3)"><path fill="#050606" d="M 40.296875 17.828125 C 40.820312 17.71875 42.804688 17.25 43.292969 16.464844 C 43.328125 16.402344 43.355469 16.34375 43.375 16.285156 C 43.511719 15.8125 43.410156 15.371094 43.105469 15.101562 C 42.75 14.792969 42.183594 14.757812 41.542969 15.007812 C 41.246094 15.125 40.992188 15.347656 40.796875 15.664062 C 40.339844 16.402344 40.296875 17.464844 40.296875 17.828125 Z M 40.21875 18.054688 L 40.09375 18.078125 L 40.089844 17.953125 C 40.085938 17.894531 40.027344 16.5 40.617188 15.550781 C 40.835938 15.199219 41.117188 14.953125 41.457031 14.820312 C 42.171875 14.539062 42.820312 14.589844 43.238281 14.957031 C 43.609375 15.277344 43.734375 15.800781 43.574219 16.347656 C 43.554688 16.425781 43.519531 16.5 43.472656 16.574219 C 42.867188 17.546875 40.328125 18.035156 40.21875 18.054688 " fill-opacity="1" fill-rule="nonzero"/></g></g></g><g clip-path="url(#3c67b17737)"><g clip-path="url(#916161331e)"><g clip-path="url(#78c7f7b646)"><path fill="#1cd4f0" d="M 40.171875 17.910156 C 40.171875 17.910156 38.160156 15.269531 39.179688 13.625 C 40.199219 11.980469 41.746094 12.328125 42.257812 13.738281 C 42.765625 15.152344 40.171875 17.910156 40.171875 17.910156 " fill-opacity="1" fill-rule="nonzero"/></g></g></g><g clip-path="url(#e42592b7f2)"><g clip-path="url(#faeff34592)"><g clip-path="url(#c5563f5828)"><g clip-path="url(#ed8c4ead4b)"><g clip-path="url(#8010ffbe2e)"><path fill="#050606" d="M 39.386719 16.34375 C 39.667969 16.992188 40.023438 17.527344 40.179688 17.746094 C 40.402344 17.496094 41.027344 16.78125 41.523438 15.980469 C 41.523438 15.976562 41.523438 15.976562 41.523438 15.976562 C 42.117188 15.023438 42.335938 14.257812 42.160156 13.769531 C 41.933594 13.140625 41.484375 12.71875 40.957031 12.644531 C 40.347656 12.554688 39.734375 12.933594 39.269531 13.679688 C 38.765625 14.492188 39.054688 15.578125 39.386719 16.34375 Z M 40.25 17.980469 L 40.167969 18.066406 L 40.089844 17.964844 C 40.070312 17.9375 39.574219 17.285156 39.199219 16.417969 C 38.695312 15.253906 38.65625 14.269531 39.089844 13.566406 C 39.597656 12.753906 40.285156 12.34375 40.976562 12.441406 C 41.585938 12.53125 42.101562 13.003906 42.355469 13.710938 C 42.554688 14.269531 42.335938 15.070312 41.703125 16.089844 C 41.078125 17.097656 40.257812 17.972656 40.25 17.980469 " fill-opacity="1" fill-rule="nonzero"/></g></g></g></g></g><g clip-path="url(#ed6312f778)"><g clip-path="url(#67b619720a)"><g clip-path="url(#607b5efcf2)"><path fill="#1cd4f0" d="M 39.425781 19.195312 C 39.425781 19.195312 37.152344 20.199219 37.285156 21.722656 C 37.417969 23.246094 38.59375 23.625 39.421875 22.863281 C 40.25 22.101562 39.425781 19.195312 39.425781 19.195312 " fill-opacity="1" fill-rule="nonzero"/><path fill="#050606" d="M 37.644531 20.757812 C 37.445312 21.074219 37.363281 21.398438 37.390625 21.71875 C 37.449219 22.402344 37.734375 22.894531 38.167969 23.074219 C 38.546875 23.226562 38.984375 23.121094 39.347656 22.789062 C 39.394531 22.746094 39.433594 22.695312 39.472656 22.636719 C 39.957031 21.847656 39.492188 19.863281 39.359375 19.34375 C 39.035156 19.503906 38.097656 20.019531 37.644531 20.757812 Z M 39.652344 22.746094 C 39.605469 22.820312 39.554688 22.886719 39.496094 22.9375 C 39.074219 23.324219 38.550781 23.445312 38.097656 23.257812 C 37.582031 23.050781 37.25 22.488281 37.183594 21.726562 C 37.152344 21.363281 37.246094 21 37.464844 20.644531 C 38.050781 19.699219 39.324219 19.128906 39.378906 19.105469 L 39.492188 19.054688 L 39.523438 19.175781 C 39.554688 19.28125 40.253906 21.773438 39.652344 22.746094 " fill-opacity="1" fill-rule="nonzero"/></g></g></g><g clip-path="url(#e9cade234e)"><g clip-path="url(#a67152b452)"><g clip-path="url(#8d9f00ab1d)"><path fill="#1cd4f0" d="M 39.375 19.199219 C 39.375 19.199219 36.113281 18.574219 35.097656 20.21875 C 34.082031 21.863281 35.082031 23.097656 36.570312 22.921875 C 38.0625 22.75 39.375 19.199219 39.375 19.199219 " fill-opacity="1" fill-rule="nonzero"/></g></g></g><g clip-path="url(#fc3aabd594)"><g clip-path="url(#00d8ec88f5)"><g clip-path="url(#b70868df16)"><path fill="#050606" d="M 35.1875 20.273438 C 34.726562 21.023438 34.660156 21.742188 35.011719 22.246094 C 35.3125 22.683594 35.890625 22.898438 36.554688 22.820312 C 37.070312 22.761719 37.65625 22.222656 38.25 21.265625 C 38.746094 20.464844 39.109375 19.585938 39.230469 19.277344 C 38.96875 19.234375 38.328125 19.15625 37.625 19.191406 C 36.789062 19.238281 35.691406 19.460938 35.1875 20.273438 Z M 38.429688 21.378906 C 37.796875 22.402344 37.179688 22.953125 36.589844 23.023438 C 35.84375 23.109375 35.191406 22.859375 34.839844 22.355469 C 34.441406 21.777344 34.503906 20.980469 35.007812 20.164062 C 35.441406 19.464844 36.339844 19.058594 37.605469 18.992188 C 38.550781 18.941406 39.355469 19.09375 39.390625 19.097656 L 39.515625 19.121094 L 39.472656 19.234375 C 39.46875 19.246094 39.050781 20.371094 38.429688 21.378906 " fill-opacity="1" fill-rule="nonzero"/></g></g></g><g fill="#fc0393" fill-opacity="1"><g transform="translate(51.410141, 25.348791)"><g><path d="M 9.765625 -5.640625 L 4.515625 -5.640625 L 4.515625 0 L 1.515625 0 L 1.515625 -13.78125 L 4.515625 -13.78125 L 4.515625 -8.28125 L 9.765625 -8.28125 L 9.765625 -13.78125 L 12.765625 -13.78125 L 12.765625 0 L 9.765625 0 Z M 9.765625 -5.640625 "/></g></g></g><g fill="#fc0393" fill-opacity="1"><g transform="translate(65.693981, 25.348791)"><g><path d="M 2.828125 -11.46875 C 2.234375 -11.46875 1.800781 -11.601562 1.53125 -11.875 C 1.257812 -12.144531 1.125 -12.488281 1.125 -12.90625 L 1.125 -13.34375 C 1.125 -13.757812 1.257812 -14.101562 1.53125 -14.375 C 1.800781 -14.644531 2.234375 -14.78125 2.828125 -14.78125 C 3.410156 -14.78125 3.835938 -14.644531 4.109375 -14.375 C 4.378906 -14.101562 4.515625 -13.757812 4.515625 -13.34375 L 4.515625 -12.90625 C 4.515625 -12.488281 4.378906 -12.144531 4.109375 -11.875 C 3.835938 -11.601562 3.410156 -11.46875 2.828125 -11.46875 Z M 1.359375 -10.359375 L 4.28125 -10.359375 L 4.28125 0 L 1.359375 0 Z M 1.359375 -10.359375 "/></g></g></g><g fill="#fc0393" fill-opacity="1"><g transform="translate(71.336489, 25.348791)"><g><path d="M 3.578125 0 L 0.171875 -10.359375 L 3.0625 -10.359375 L 4.34375 -6.171875 L 5.3125 -2.421875 L 5.46875 -2.421875 L 6.4375 -6.171875 L 7.671875 -10.359375 L 10.4375 -10.359375 L 7.046875 0 Z M 3.578125 0 "/></g></g></g><g fill="#fc0393" fill-opacity="1"><g transform="translate(81.950718, 25.348791)"><g><path d="M 5.6875 0.234375 C 4.894531 0.234375 4.1875 0.109375 3.5625 -0.140625 C 2.945312 -0.398438 2.425781 -0.765625 2 -1.234375 C 1.570312 -1.703125 1.25 -2.269531 1.03125 -2.9375 C 0.8125 -3.613281 0.703125 -4.363281 0.703125 -5.1875 C 0.703125 -6 0.804688 -6.738281 1.015625 -7.40625 C 1.234375 -8.070312 1.546875 -8.640625 1.953125 -9.109375 C 2.367188 -9.585938 2.878906 -9.953125 3.484375 -10.203125 C 4.097656 -10.460938 4.789062 -10.59375 5.5625 -10.59375 C 6.414062 -10.59375 7.148438 -10.445312 7.765625 -10.15625 C 8.378906 -9.875 8.878906 -9.488281 9.265625 -9 C 9.648438 -8.507812 9.929688 -7.945312 10.109375 -7.3125 C 10.285156 -6.675781 10.375 -6.007812 10.375 -5.3125 L 10.375 -4.4375 L 3.734375 -4.4375 L 3.734375 -4.28125 C 3.734375 -3.59375 3.914062 -3.046875 4.28125 -2.640625 C 4.644531 -2.242188 5.222656 -2.046875 6.015625 -2.046875 C 6.617188 -2.046875 7.113281 -2.164062 7.5 -2.40625 C 7.882812 -2.65625 8.238281 -2.953125 8.5625 -3.296875 L 10.03125 -1.484375 C 9.5625 -0.941406 8.957031 -0.519531 8.21875 -0.21875 C 7.476562 0.0820312 6.632812 0.234375 5.6875 0.234375 Z M 5.625 -8.453125 C 5.03125 -8.453125 4.566406 -8.253906 4.234375 -7.859375 C 3.898438 -7.472656 3.734375 -6.957031 3.734375 -6.3125 L 3.734375 -6.15625 L 7.359375 -6.15625 L 7.359375 -6.328125 C 7.359375 -6.960938 7.21875 -7.472656 6.9375 -7.859375 C 6.65625 -8.253906 6.21875 -8.453125 5.625 -8.453125 Z M 5.625 -8.453125 "/></g></g></g><g fill="#fc0393" fill-opacity="1"><g transform="translate(93.038449, 25.348791)"><g><path d="M 7.265625 -11.109375 L 7.265625 0 L 4.265625 0 L 4.265625 -11.109375 L 0.53125 -11.109375 L 0.53125 -13.78125 L 10.984375 -13.78125 L 10.984375 -11.109375 Z M 7.265625 -11.109375 "/></g></g></g><g fill="#fc0393" fill-opacity="1"><g transform="translate(104.560224, 25.348791)"><g><path d="M 9.015625 0 C 8.492188 0 8.054688 -0.160156 7.703125 -0.484375 C 7.359375 -0.816406 7.140625 -1.257812 7.046875 -1.8125 L 6.921875 -1.8125 C 6.765625 -1.144531 6.414062 -0.632812 5.875 -0.28125 C 5.34375 0.0625 4.679688 0.234375 3.890625 0.234375 C 2.847656 0.234375 2.050781 -0.0390625 1.5 -0.59375 C 0.945312 -1.144531 0.671875 -1.875 0.671875 -2.78125 C 0.671875 -3.875 1.066406 -4.6875 1.859375 -5.21875 C 2.660156 -5.75 3.742188 -6.015625 5.109375 -6.015625 L 6.75 -6.015625 L 6.75 -6.671875 C 6.75 -7.171875 6.613281 -7.566406 6.34375 -7.859375 C 6.082031 -8.160156 5.644531 -8.3125 5.03125 -8.3125 C 4.445312 -8.3125 3.984375 -8.1875 3.640625 -7.9375 C 3.304688 -7.6875 3.023438 -7.398438 2.796875 -7.078125 L 1.0625 -8.625 C 1.488281 -9.238281 2.019531 -9.71875 2.65625 -10.0625 C 3.289062 -10.414062 4.15625 -10.59375 5.25 -10.59375 C 6.71875 -10.59375 7.820312 -10.269531 8.5625 -9.625 C 9.300781 -8.976562 9.671875 -8.039062 9.671875 -6.8125 L 9.671875 -2.265625 L 10.640625 -2.265625 L 10.640625 0 Z M 4.96875 -1.796875 C 5.457031 -1.796875 5.875 -1.898438 6.21875 -2.109375 C 6.570312 -2.316406 6.75 -2.660156 6.75 -3.140625 L 6.75 -4.359375 L 5.328125 -4.359375 C 4.179688 -4.359375 3.609375 -3.972656 3.609375 -3.203125 L 3.609375 -2.90625 C 3.609375 -2.519531 3.726562 -2.238281 3.96875 -2.0625 C 4.207031 -1.882812 4.539062 -1.796875 4.96875 -1.796875 Z M 4.96875 -1.796875 "/></g></g></g><g fill="#fc0393" fill-opacity="1"><g transform="translate(115.786052, 25.348791)"><g><path d="M 4.265625 0 C 3.265625 0 2.53125 -0.238281 2.0625 -0.71875 C 1.59375 -1.207031 1.359375 -1.914062 1.359375 -2.84375 L 1.359375 -14.609375 L 4.28125 -14.609375 L 4.28125 -2.265625 L 5.578125 -2.265625 L 5.578125 0 Z M 4.265625 0 "/></g></g></g><g fill="#fc0393" fill-opacity="1"><g transform="translate(121.763956, 25.348791)"><g><path d="M 1.359375 -14.609375 L 4.28125 -14.609375 L 4.28125 -5.984375 L 4.40625 -5.984375 L 5.6875 -7.890625 L 7.75 -10.359375 L 10.984375 -10.359375 L 7.53125 -6.390625 L 11.390625 0 L 7.90625 0 L 5.578125 -4.375 L 4.28125 -2.921875 L 4.28125 0 L 1.359375 0 Z M 1.359375 -14.609375 "/></g></g></g></svg>