<svg xmlns="http://www.w3.org/2000/svg" xmlns:xlink="http://www.w3.org/1999/xlink" width="50" zoomAndPan="magnify" viewBox="0 0 37.5 37.499999" height="50" preserveAspectRatio="xMidYMid meet" version="1.0"><defs><clipPath id="16828a8a96"><path d="M 8 27 L 27 27 L 27 31.898438 L 8 31.898438 Z M 8 27 " clip-rule="nonzero"/></clipPath><clipPath id="74889a08c6"><path d="M 4.21875 17 L 31.296875 17 L 31.296875 24 L 4.21875 24 Z M 4.21875 17 " clip-rule="nonzero"/></clipPath><clipPath id="0940af077c"><path d="M 4.21875 13 L 31 13 L 31 20 L 4.21875 20 Z M 4.21875 13 " clip-rule="nonzero"/></clipPath><clipPath id="2c8c0ded38"><path d="M 12 5.117188 L 24 5.117188 L 24 10 L 12 10 Z M 12 5.117188 " clip-rule="nonzero"/></clipPath><clipPath id="8374a426cf"><path d="M 13 11 L 17 11 L 17 14 L 13 14 Z M 13 11 " clip-rule="nonzero"/></clipPath><clipPath id="55fec584ae"><path d="M 12.117188 6.875 L 21.960938 13.59375 L 16.722656 21.265625 L 6.882812 14.546875 Z M 12.117188 6.875 " clip-rule="nonzero"/></clipPath><clipPath id="e5d1c5cd7a"><path d="M 12.117188 6.875 L 21.960938 13.59375 L 16.722656 21.265625 L 6.882812 14.546875 Z M 12.117188 6.875 " clip-rule="nonzero"/></clipPath><clipPath id="55c24e7605"><path d="M 13 10 L 18 10 L 18 14 L 13 14 Z M 13 10 " clip-rule="nonzero"/></clipPath><clipPath id="5a843f67aa"><path d="M 12.117188 6.875 L 21.960938 13.59375 L 16.722656 21.265625 L 6.882812 14.546875 Z M 12.117188 6.875 " clip-rule="nonzero"/></clipPath><clipPath id="2d2cf607c2"><path d="M 12.117188 6.875 L 21.960938 13.59375 L 16.722656 21.265625 L 6.882812 14.546875 Z M 12.117188 6.875 " clip-rule="nonzero"/></clipPath><clipPath id="9b8a3bfd57"><path d="M 11 12 L 17 12 L 17 18 L 11 18 Z M 11 12 " clip-rule="nonzero"/></clipPath><clipPath id="5e182af219"><path d="M 12.117188 6.875 L 21.960938 13.59375 L 16.722656 21.265625 L 6.882812 14.546875 Z M 12.117188 6.875 " clip-rule="nonzero"/></clipPath><clipPath id="51d88a6562"><path d="M 12.117188 6.875 L 21.960938 13.59375 L 16.722656 21.265625 L 6.882812 14.546875 Z M 12.117188 6.875 " clip-rule="nonzero"/></clipPath><clipPath id="8af51295aa"><path d="M 11 12 L 17 12 L 17 18 L 11 18 Z M 11 12 " clip-rule="nonzero"/></clipPath><clipPath id="49d3177ab1"><path d="M 12.117188 6.875 L 21.960938 13.59375 L 16.722656 21.265625 L 6.882812 14.546875 Z M 12.117188 6.875 " clip-rule="nonzero"/></clipPath><clipPath id="03267fe1e0"><path d="M 12.117188 6.875 L 21.960938 13.59375 L 16.722656 21.265625 L 6.882812 14.546875 Z M 12.117188 6.875 " clip-rule="nonzero"/></clipPath><clipPath id="aef567d7c3"><path d="M 13.417969 11.132812 L 17.457031 13.886719 L 13.777344 19.277344 L 9.742188 16.523438 Z M 13.417969 11.132812 " clip-rule="nonzero"/></clipPath><clipPath id="6ddaa360a2"><path d="M 13.417969 11.132812 L 17.457031 13.886719 L 13.789062 19.261719 L 9.75 16.507812 Z M 13.417969 11.132812 " clip-rule="nonzero"/></clipPath><clipPath id="e0b82e2585"><path d="M 11 14 L 16 14 L 16 18 L 11 18 Z M 11 14 " clip-rule="nonzero"/></clipPath><clipPath id="aee0b1243a"><path d="M 12.117188 6.875 L 21.960938 13.59375 L 16.722656 21.265625 L 6.882812 14.546875 Z M 12.117188 6.875 " clip-rule="nonzero"/></clipPath><clipPath id="15c7ac5799"><path d="M 12.117188 6.875 L 21.960938 13.59375 L 16.722656 21.265625 L 6.882812 14.546875 Z M 12.117188 6.875 " clip-rule="nonzero"/></clipPath><clipPath id="fb4a9f863f"><path d="M 12 12 L 17 12 L 17 16 L 12 16 Z M 12 12 " clip-rule="nonzero"/></clipPath><clipPath id="7b004bb65b"><path d="M 12.117188 6.875 L 21.960938 13.59375 L 16.722656 21.265625 L 6.882812 14.546875 Z M 12.117188 6.875 " clip-rule="nonzero"/></clipPath><clipPath id="563f898bd7"><path d="M 12.117188 6.875 L 21.960938 13.59375 L 16.722656 21.265625 L 6.882812 14.546875 Z M 12.117188 6.875 " clip-rule="nonzero"/></clipPath><clipPath id="9db5de55ef"><path d="M 14 9 L 16 9 L 16 12 L 14 12 Z M 14 9 " clip-rule="nonzero"/></clipPath><clipPath id="e31728418b"><path d="M 12.117188 6.875 L 21.960938 13.59375 L 16.722656 21.265625 L 6.882812 14.546875 Z M 12.117188 6.875 " clip-rule="nonzero"/></clipPath><clipPath id="43134999be"><path d="M 12.117188 6.875 L 21.960938 13.59375 L 16.722656 21.265625 L 6.882812 14.546875 Z M 12.117188 6.875 " clip-rule="nonzero"/></clipPath><clipPath id="851b992ae6"><path d="M 14 9 L 16 9 L 16 10 L 14 10 Z M 14 9 " clip-rule="nonzero"/></clipPath><clipPath id="09c0384aac"><path d="M 12.117188 6.875 L 21.960938 13.59375 L 16.722656 21.265625 L 6.882812 14.546875 Z M 12.117188 6.875 " clip-rule="nonzero"/></clipPath><clipPath id="8447822080"><path d="M 12.117188 6.875 L 21.960938 13.59375 L 16.722656 21.265625 L 6.882812 14.546875 Z M 12.117188 6.875 " clip-rule="nonzero"/></clipPath><clipPath id="323abcd364"><path d="M 16 11 L 19 11 L 19 13 L 16 13 Z M 16 11 " clip-rule="nonzero"/></clipPath><clipPath id="3bf5b350a9"><path d="M 12.117188 6.875 L 21.960938 13.59375 L 16.722656 21.265625 L 6.882812 14.546875 Z M 12.117188 6.875 " clip-rule="nonzero"/></clipPath><clipPath id="6631e25c55"><path d="M 12.117188 6.875 L 21.960938 13.59375 L 16.722656 21.265625 L 6.882812 14.546875 Z M 12.117188 6.875 " clip-rule="nonzero"/></clipPath><clipPath id="5b54eb9ffc"><path d="M 18 11 L 19 11 L 19 13 L 18 13 Z M 18 11 " clip-rule="nonzero"/></clipPath><clipPath id="50d72581e2"><path d="M 12.117188 6.875 L 21.960938 13.59375 L 16.722656 21.265625 L 6.882812 14.546875 Z M 12.117188 6.875 " clip-rule="nonzero"/></clipPath><clipPath id="a888381d15"><path d="M 12.117188 6.875 L 21.960938 13.59375 L 16.722656 21.265625 L 6.882812 14.546875 Z M 12.117188 6.875 " clip-rule="nonzero"/></clipPath><clipPath id="0384ca107c"><path d="M 14 14 L 18 14 L 18 18 L 14 18 Z M 14 14 " clip-rule="nonzero"/></clipPath><clipPath id="06031ea728"><path d="M 12.117188 6.875 L 21.960938 13.59375 L 16.722656 21.265625 L 6.882812 14.546875 Z M 12.117188 6.875 " clip-rule="nonzero"/></clipPath><clipPath id="264a59c579"><path d="M 12.117188 6.875 L 21.960938 13.59375 L 16.722656 21.265625 L 6.882812 14.546875 Z M 12.117188 6.875 " clip-rule="nonzero"/></clipPath><clipPath id="3bcb2405de"><path d="M 14 13 L 20 13 L 20 17 L 14 17 Z M 14 13 " clip-rule="nonzero"/></clipPath><clipPath id="af7cdd051a"><path d="M 12.117188 6.875 L 21.960938 13.59375 L 16.722656 21.265625 L 6.882812 14.546875 Z M 12.117188 6.875 " clip-rule="nonzero"/></clipPath><clipPath id="2e34a0972b"><path d="M 12.117188 6.875 L 21.960938 13.59375 L 16.722656 21.265625 L 6.882812 14.546875 Z M 12.117188 6.875 " clip-rule="nonzero"/></clipPath><clipPath id="28fcc887ed"><path d="M 14 13 L 21 13 L 21 17 L 14 17 Z M 14 13 " clip-rule="nonzero"/></clipPath><clipPath id="4858fc2435"><path d="M 12.117188 6.875 L 21.960938 13.59375 L 16.722656 21.265625 L 6.882812 14.546875 Z M 12.117188 6.875 " clip-rule="nonzero"/></clipPath><clipPath id="5c5a6b435c"><path d="M 12.117188 6.875 L 21.960938 13.59375 L 16.722656 21.265625 L 6.882812 14.546875 Z M 12.117188 6.875 " clip-rule="nonzero"/></clipPath><clipPath id="8afc55e933"><path d="M 16.539062 11.96875 L 20.707031 14.8125 L 18.808594 17.589844 L 14.640625 14.746094 Z M 16.539062 11.96875 " clip-rule="nonzero"/></clipPath><clipPath id="9339203261"><path d="M 16.539062 11.96875 L 20.691406 14.800781 L 18.796875 17.582031 L 14.640625 14.746094 Z M 16.539062 11.96875 " clip-rule="nonzero"/></clipPath><clipPath id="032d9f3aee"><path d="M 10 11 L 14 11 L 14 15 L 10 15 Z M 10 11 " clip-rule="nonzero"/></clipPath><clipPath id="eaabec5433"><path d="M 12.117188 6.875 L 21.960938 13.59375 L 16.722656 21.265625 L 6.882812 14.546875 Z M 12.117188 6.875 " clip-rule="nonzero"/></clipPath><clipPath id="3f3cc9e6a5"><path d="M 12.117188 6.875 L 21.960938 13.59375 L 16.722656 21.265625 L 6.882812 14.546875 Z M 12.117188 6.875 " clip-rule="nonzero"/></clipPath><clipPath id="db9af7f0dc"><path d="M 9 11 L 14 11 L 14 15 L 9 15 Z M 9 11 " clip-rule="nonzero"/></clipPath><clipPath id="895459646d"><path d="M 12.117188 6.875 L 21.960938 13.59375 L 16.722656 21.265625 L 6.882812 14.546875 Z M 12.117188 6.875 " clip-rule="nonzero"/></clipPath><clipPath id="2f3e4600f4"><path d="M 12.117188 6.875 L 21.960938 13.59375 L 16.722656 21.265625 L 6.882812 14.546875 Z M 12.117188 6.875 " clip-rule="nonzero"/></clipPath><clipPath id="a2bcf37d85"><path d="M 10 9 L 14 9 L 14 14 L 10 14 Z M 10 9 " clip-rule="nonzero"/></clipPath><clipPath id="68e8e341ac"><path d="M 12.117188 6.875 L 21.960938 13.59375 L 16.722656 21.265625 L 6.882812 14.546875 Z M 12.117188 6.875 " clip-rule="nonzero"/></clipPath><clipPath id="04135d5d03"><path d="M 12.117188 6.875 L 21.960938 13.59375 L 16.722656 21.265625 L 6.882812 14.546875 Z M 12.117188 6.875 " clip-rule="nonzero"/></clipPath><clipPath id="3ccdd60e4e"><path d="M 10 9 L 15 9 L 15 14 L 10 14 Z M 10 9 " clip-rule="nonzero"/></clipPath><clipPath id="e7b16ba5a5"><path d="M 12.117188 6.875 L 21.960938 13.59375 L 16.722656 21.265625 L 6.882812 14.546875 Z M 12.117188 6.875 " clip-rule="nonzero"/></clipPath><clipPath id="8fe451da73"><path d="M 12.117188 6.875 L 21.960938 13.59375 L 16.722656 21.265625 L 6.882812 14.546875 Z M 12.117188 6.875 " clip-rule="nonzero"/></clipPath><clipPath id="97d3840998"><path d="M 22 16 L 26 16 L 26 20 L 22 20 Z M 22 16 " clip-rule="nonzero"/></clipPath><clipPath id="50550f9318"><path d="M 18.621094 21.121094 L 24.890625 10.992188 L 32.789062 15.878906 L 26.515625 26.011719 Z M 18.621094 21.121094 " clip-rule="nonzero"/></clipPath><clipPath id="7d8a50dec5"><path d="M 18.621094 21.121094 L 24.890625 10.992188 L 32.789062 15.878906 L 26.515625 26.011719 Z M 18.621094 21.121094 " clip-rule="nonzero"/></clipPath><clipPath id="d16ece3e9e"><path d="M 22 15 L 26 15 L 26 20 L 22 20 Z M 22 15 " clip-rule="nonzero"/></clipPath><clipPath id="4cb0ab42f2"><path d="M 18.621094 21.121094 L 24.890625 10.992188 L 32.789062 15.878906 L 26.515625 26.011719 Z M 18.621094 21.121094 " clip-rule="nonzero"/></clipPath><clipPath id="e7ebde7071"><path d="M 18.621094 21.121094 L 24.890625 10.992188 L 32.789062 15.878906 L 26.515625 26.011719 Z M 18.621094 21.121094 " clip-rule="nonzero"/></clipPath><clipPath id="7b677f7a1b"><path d="M 23 16 L 30 16 L 30 22 L 23 22 Z M 23 16 " clip-rule="nonzero"/></clipPath><clipPath id="966e581257"><path d="M 18.621094 21.121094 L 24.890625 10.992188 L 32.789062 15.878906 L 26.515625 26.011719 Z M 18.621094 21.121094 " clip-rule="nonzero"/></clipPath><clipPath id="dad1a0f041"><path d="M 18.621094 21.121094 L 24.890625 10.992188 L 32.789062 15.878906 L 26.515625 26.011719 Z M 18.621094 21.121094 " clip-rule="nonzero"/></clipPath><clipPath id="35148c8ed0"><path d="M 23 16 L 30 16 L 30 22 L 23 22 Z M 23 16 " clip-rule="nonzero"/></clipPath><clipPath id="b6c2530a75"><path d="M 18.621094 21.121094 L 24.890625 10.992188 L 32.789062 15.878906 L 26.515625 26.011719 Z M 18.621094 21.121094 " clip-rule="nonzero"/></clipPath><clipPath id="6cbd07e3fc"><path d="M 18.621094 21.121094 L 24.890625 10.992188 L 32.789062 15.878906 L 26.515625 26.011719 Z M 18.621094 21.121094 " clip-rule="nonzero"/></clipPath><clipPath id="c7db53e14d"><path d="M 22.816406 19.632812 L 25.386719 15.476562 L 30.933594 18.910156 L 28.363281 23.066406 Z M 22.816406 19.632812 " clip-rule="nonzero"/></clipPath><clipPath id="620222d95a"><path d="M 22.816406 19.632812 L 25.386719 15.476562 L 30.917969 18.902344 L 28.347656 23.058594 Z M 22.816406 19.632812 " clip-rule="nonzero"/></clipPath><clipPath id="48c8199fd8"><path d="M 25 17 L 29 17 L 29 22 L 25 22 Z M 25 17 " clip-rule="nonzero"/></clipPath><clipPath id="8eaa71324f"><path d="M 18.621094 21.121094 L 24.890625 10.992188 L 32.789062 15.878906 L 26.515625 26.011719 Z M 18.621094 21.121094 " clip-rule="nonzero"/></clipPath><clipPath id="74bae9ea28"><path d="M 18.621094 21.121094 L 24.890625 10.992188 L 32.789062 15.878906 L 26.515625 26.011719 Z M 18.621094 21.121094 " clip-rule="nonzero"/></clipPath><clipPath id="137e301e13"><path d="M 24 16 L 28 16 L 28 21 L 24 21 Z M 24 16 " clip-rule="nonzero"/></clipPath><clipPath id="5a7b6a4d82"><path d="M 18.621094 21.121094 L 24.890625 10.992188 L 32.789062 15.878906 L 26.515625 26.011719 Z M 18.621094 21.121094 " clip-rule="nonzero"/></clipPath><clipPath id="c25c2de639"><path d="M 18.621094 21.121094 L 24.890625 10.992188 L 32.789062 15.878906 L 26.515625 26.011719 Z M 18.621094 21.121094 " clip-rule="nonzero"/></clipPath><clipPath id="6a4f28f2b6"><path d="M 20 17 L 23 17 L 23 19 L 20 19 Z M 20 17 " clip-rule="nonzero"/></clipPath><clipPath id="aed5289abc"><path d="M 18.621094 21.121094 L 24.890625 10.992188 L 32.789062 15.878906 L 26.515625 26.011719 Z M 18.621094 21.121094 " clip-rule="nonzero"/></clipPath><clipPath id="129a9e1d73"><path d="M 18.621094 21.121094 L 24.890625 10.992188 L 32.789062 15.878906 L 26.515625 26.011719 Z M 18.621094 21.121094 " clip-rule="nonzero"/></clipPath><clipPath id="3890a44c3f"><path d="M 20 17 L 22 17 L 22 19 L 20 19 Z M 20 17 " clip-rule="nonzero"/></clipPath><clipPath id="7cc0964ddb"><path d="M 18.621094 21.121094 L 24.890625 10.992188 L 32.789062 15.878906 L 26.515625 26.011719 Z M 18.621094 21.121094 " clip-rule="nonzero"/></clipPath><clipPath id="17f3281743"><path d="M 18.621094 21.121094 L 24.890625 10.992188 L 32.789062 15.878906 L 26.515625 26.011719 Z M 18.621094 21.121094 " clip-rule="nonzero"/></clipPath><clipPath id="bfbd00bdf9"><path d="M 22 14 L 24 14 L 24 17 L 22 17 Z M 22 14 " clip-rule="nonzero"/></clipPath><clipPath id="97310e3175"><path d="M 18.621094 21.121094 L 24.890625 10.992188 L 32.789062 15.878906 L 26.515625 26.011719 Z M 18.621094 21.121094 " clip-rule="nonzero"/></clipPath><clipPath id="9314773e91"><path d="M 18.621094 21.121094 L 24.890625 10.992188 L 32.789062 15.878906 L 26.515625 26.011719 Z M 18.621094 21.121094 " clip-rule="nonzero"/></clipPath><clipPath id="800f594dad"><path d="M 22 14 L 24 14 L 24 15 L 22 15 Z M 22 14 " clip-rule="nonzero"/></clipPath><clipPath id="c5ce570bdf"><path d="M 18.621094 21.121094 L 24.890625 10.992188 L 32.789062 15.878906 L 26.515625 26.011719 Z M 18.621094 21.121094 " clip-rule="nonzero"/></clipPath><clipPath id="7e01c93703"><path d="M 18.621094 21.121094 L 24.890625 10.992188 L 32.789062 15.878906 L 26.515625 26.011719 Z M 18.621094 21.121094 " clip-rule="nonzero"/></clipPath><clipPath id="1db77bdcdd"><path d="M 26 14 L 30 14 L 30 18 L 26 18 Z M 26 14 " clip-rule="nonzero"/></clipPath><clipPath id="f23d7fb3b2"><path d="M 18.621094 21.121094 L 24.890625 10.992188 L 32.789062 15.878906 L 26.515625 26.011719 Z M 18.621094 21.121094 " clip-rule="nonzero"/></clipPath><clipPath id="c4f0cbe229"><path d="M 18.621094 21.121094 L 24.890625 10.992188 L 32.789062 15.878906 L 26.515625 26.011719 Z M 18.621094 21.121094 " clip-rule="nonzero"/></clipPath><clipPath id="d5cc2045eb"><path d="M 26 14 L 30 14 L 30 19 L 26 19 Z M 26 14 " clip-rule="nonzero"/></clipPath><clipPath id="7b8c75fff8"><path d="M 18.621094 21.121094 L 24.890625 10.992188 L 32.789062 15.878906 L 26.515625 26.011719 Z M 18.621094 21.121094 " clip-rule="nonzero"/></clipPath><clipPath id="d3b558f9e0"><path d="M 18.621094 21.121094 L 24.890625 10.992188 L 32.789062 15.878906 L 26.515625 26.011719 Z M 18.621094 21.121094 " clip-rule="nonzero"/></clipPath><clipPath id="e962f0d582"><path d="M 24 12 L 29 12 L 29 18 L 24 18 Z M 24 12 " clip-rule="nonzero"/></clipPath><clipPath id="c63a107de4"><path d="M 18.621094 21.121094 L 24.890625 10.992188 L 32.789062 15.878906 L 26.515625 26.011719 Z M 18.621094 21.121094 " clip-rule="nonzero"/></clipPath><clipPath id="4cb75a277d"><path d="M 18.621094 21.121094 L 24.890625 10.992188 L 32.789062 15.878906 L 26.515625 26.011719 Z M 18.621094 21.121094 " clip-rule="nonzero"/></clipPath><clipPath id="000e557ec7"><path d="M 24 12 L 29 12 L 29 19 L 24 19 Z M 24 12 " clip-rule="nonzero"/></clipPath><clipPath id="097cd78375"><path d="M 18.621094 21.121094 L 24.890625 10.992188 L 32.789062 15.878906 L 26.515625 26.011719 Z M 18.621094 21.121094 " clip-rule="nonzero"/></clipPath><clipPath id="f3450873ca"><path d="M 18.621094 21.121094 L 24.890625 10.992188 L 32.789062 15.878906 L 26.515625 26.011719 Z M 18.621094 21.121094 " clip-rule="nonzero"/></clipPath><clipPath id="33f0aa0844"><path d="M 23.507812 16.480469 L 26.167969 12.191406 L 29.027344 13.960938 L 26.371094 18.25 Z M 23.507812 16.480469 " clip-rule="nonzero"/></clipPath><clipPath id="bb457d5104"><path d="M 23.507812 16.480469 L 26.15625 12.203125 L 29.019531 13.976562 L 26.371094 18.25 Z M 23.507812 16.480469 " clip-rule="nonzero"/></clipPath><clipPath id="4370dcbd36"><path d="M 23 19 L 26 19 L 26 23 L 23 23 Z M 23 19 " clip-rule="nonzero"/></clipPath><clipPath id="193684eaa1"><path d="M 18.621094 21.121094 L 24.890625 10.992188 L 32.789062 15.878906 L 26.515625 26.011719 Z M 18.621094 21.121094 " clip-rule="nonzero"/></clipPath><clipPath id="3da67ee365"><path d="M 18.621094 21.121094 L 24.890625 10.992188 L 32.789062 15.878906 L 26.515625 26.011719 Z M 18.621094 21.121094 " clip-rule="nonzero"/></clipPath><clipPath id="4afaa0a260"><path d="M 23 19 L 26 19 L 26 24 L 23 24 Z M 23 19 " clip-rule="nonzero"/></clipPath><clipPath id="c81886d462"><path d="M 18.621094 21.121094 L 24.890625 10.992188 L 32.789062 15.878906 L 26.515625 26.011719 Z M 18.621094 21.121094 " clip-rule="nonzero"/></clipPath><clipPath id="0ce91758d1"><path d="M 18.621094 21.121094 L 24.890625 10.992188 L 32.789062 15.878906 L 26.515625 26.011719 Z M 18.621094 21.121094 " clip-rule="nonzero"/></clipPath><clipPath id="7a6cbcebce"><path d="M 20 19 L 26 19 L 26 23 L 20 23 Z M 20 19 " clip-rule="nonzero"/></clipPath><clipPath id="fecbf47c5b"><path d="M 18.621094 21.121094 L 24.890625 10.992188 L 32.789062 15.878906 L 26.515625 26.011719 Z M 18.621094 21.121094 " clip-rule="nonzero"/></clipPath><clipPath id="5410c74fb7"><path d="M 18.621094 21.121094 L 24.890625 10.992188 L 32.789062 15.878906 L 26.515625 26.011719 Z M 18.621094 21.121094 " clip-rule="nonzero"/></clipPath><clipPath id="5585b4df24"><path d="M 20 18 L 26 18 L 26 23 L 20 23 Z M 20 18 " clip-rule="nonzero"/></clipPath><clipPath id="b3bd227caa"><path d="M 18.621094 21.121094 L 24.890625 10.992188 L 32.789062 15.878906 L 26.515625 26.011719 Z M 18.621094 21.121094 " clip-rule="nonzero"/></clipPath><clipPath id="86331657f2"><path d="M 18.621094 21.121094 L 24.890625 10.992188 L 32.789062 15.878906 L 26.515625 26.011719 Z M 18.621094 21.121094 " clip-rule="nonzero"/></clipPath></defs><g clip-path="url(#16828a8a96)"><path fill="#fc0393" d="M 8.789062 28.183594 C 8.972656 30.539062 13.640625 31.886719 17.652344 31.820312 C 21.820312 31.753906 26.792969 30.289062 26.554688 27.835938 C 26.554688 27.828125 26.550781 27.820312 26.550781 27.8125 C 24.394531 28.816406 21.152344 29.53125 18.148438 29.570312 C 14.871094 29.617188 11.132812 29.273438 8.789062 28.183594 Z M 8.789062 28.183594 " fill-opacity="1" fill-rule="nonzero"/></g><path fill="#702792" d="M 28.996094 25.191406 C 28.933594 24.914062 28.773438 24.652344 28.527344 24.40625 C 27.558594 25.019531 26.207031 25.582031 24.628906 26.03125 C 22.617188 26.601562 20.246094 26.992188 17.847656 27.0625 C 14.691406 27.15625 11.941406 26.886719 9.8125 26.304688 C 8.457031 25.933594 7.355469 25.4375 6.558594 24.828125 C 6.515625 24.964844 6.488281 25.113281 6.484375 25.265625 C 6.449219 26.570312 7.359375 27.515625 8.789062 28.183594 C 11.132812 29.273438 14.871094 29.617188 18.148438 29.570312 C 21.152344 29.53125 24.398438 28.816406 26.550781 27.8125 C 28.1875 27.050781 29.195312 26.121094 28.996094 25.191406 Z M 28.996094 25.191406 " fill-opacity="1" fill-rule="nonzero"/><path fill="#fc0393" d="M 30.085938 22.171875 C 29.996094 21.78125 29.695312 21.425781 29.226562 21.101562 C 28.109375 21.742188 26.566406 22.328125 24.792969 22.777344 C 22.707031 23.308594 20.296875 23.648438 17.882812 23.667969 C 15.070312 23.6875 12.027344 23.417969 9.53125 22.796875 C 7.890625 22.390625 6.488281 21.835938 5.539062 21.113281 C 5.273438 21.417969 5.121094 21.765625 5.109375 22.160156 C 5.085938 23.199219 5.601562 24.09375 6.558594 24.828125 C 7.351562 25.4375 8.457031 25.933594 9.808594 26.304688 C 11.941406 26.886719 14.691406 27.15625 17.84375 27.0625 C 20.246094 26.992188 22.617188 26.601562 24.628906 26.03125 C 26.207031 25.582031 27.558594 25.019531 28.527344 24.40625 C 29.65625 23.695312 30.261719 22.914062 30.085938 22.171875 Z M 30.085938 22.171875 " fill-opacity="1" fill-rule="nonzero"/><g clip-path="url(#74889a08c6)"><path fill="#702792" d="M 31.105469 18.722656 C 30.953125 18.117188 30.261719 17.597656 29.214844 17.160156 C 28.027344 18.054688 25.894531 18.847656 23.449219 19.355469 C 21.78125 19.703125 19.964844 19.917969 18.207031 19.9375 C 15.617188 19.96875 12.734375 19.792969 10.316406 19.292969 C 8.183594 18.855469 6.414062 18.164062 5.523438 17.144531 C 4.757812 17.578125 4.269531 18.117188 4.25 18.796875 C 4.222656 19.703125 4.703125 20.472656 5.539062 21.113281 C 6.488281 21.835938 7.890625 22.390625 9.53125 22.796875 C 12.027344 23.414062 15.070312 23.6875 17.882812 23.667969 C 20.296875 23.648438 22.707031 23.308594 24.792969 22.777344 C 26.566406 22.328125 28.109375 21.742188 29.226562 21.101562 C 30.566406 20.335938 31.300781 19.496094 31.105469 18.722656 Z M 31.105469 18.722656 " fill-opacity="1" fill-rule="nonzero"/></g><g clip-path="url(#0940af077c)"><path fill="#fc0393" d="M 30.183594 15.433594 C 30.03125 14.792969 29.308594 14.25 28.21875 13.800781 C 27.261719 14.613281 25.617188 15.351562 23.695312 15.875 C 21.992188 16.339844 20.074219 16.632812 18.234375 16.65625 C 15.664062 16.691406 12.785156 16.457031 10.5 15.816406 C 8.746094 15.324219 7.34375 14.589844 6.695312 13.558594 C 5.636719 14.03125 4.925781 14.660156 4.902344 15.503906 C 4.882812 16.128906 5.109375 16.671875 5.523438 17.144531 C 6.414062 18.164062 8.183594 18.851562 10.316406 19.292969 C 12.734375 19.792969 15.617188 19.96875 18.207031 19.9375 C 19.964844 19.914062 21.78125 19.703125 23.449219 19.355469 C 25.894531 18.847656 28.027344 18.054688 29.214844 17.160156 C 29.949219 16.609375 30.320312 16.015625 30.183594 15.433594 Z M 30.183594 15.433594 " fill-opacity="1" fill-rule="nonzero"/></g><path fill="#702792" d="M 29.082031 12.070312 C 28.914062 11.289062 27.980469 10.648438 26.609375 10.148438 C 26.175781 11.105469 24.65625 11.96875 22.753906 12.539062 C 21.335938 12.960938 19.710938 13.226562 18.164062 13.25 C 15.921875 13.289062 13.40625 13.109375 11.570312 12.441406 C 10.113281 11.910156 9.085938 11.066406 8.960938 9.773438 C 7.457031 10.269531 6.335938 11.015625 6.308594 12.144531 C 6.292969 12.667969 6.433594 13.136719 6.695312 13.558594 C 7.34375 14.589844 8.75 15.324219 10.5 15.816406 C 12.789062 16.457031 15.664062 16.691406 18.234375 16.65625 C 20.078125 16.632812 21.996094 16.339844 23.695312 15.875 C 25.617188 15.351562 27.261719 14.613281 28.21875 13.800781 C 28.875 13.242188 29.207031 12.652344 29.082031 12.070312 Z M 29.082031 12.070312 " fill-opacity="1" fill-rule="nonzero"/><path fill="#fc0393" d="M 26.71875 9.375 C 26.53125 8.347656 25.113281 7.585938 23.234375 7.085938 C 23.261719 7.152344 23.28125 7.21875 23.292969 7.285156 C 23.40625 7.960938 22.757812 8.601562 21.757812 9.089844 C 20.691406 9.609375 19.226562 9.953125 17.863281 9.980469 C 16.089844 10.011719 14.046875 9.808594 12.902344 9.003906 C 12.34375 8.609375 12 8.066406 12.015625 7.332031 C 12.015625 7.191406 12.042969 7.054688 12.085938 6.929688 C 10.414062 7.359375 8.980469 8.113281 8.949219 9.445312 C 8.945312 9.558594 8.953125 9.667969 8.960938 9.773438 C 9.085938 11.066406 10.113281 11.910156 11.570312 12.441406 C 13.40625 13.109375 15.921875 13.289062 18.164062 13.25 C 19.710938 13.226562 21.335938 12.960938 22.753906 12.539062 C 24.65625 11.96875 26.175781 11.109375 26.609375 10.148438 C 26.722656 9.894531 26.765625 9.636719 26.71875 9.375 Z M 26.71875 9.375 " fill-opacity="1" fill-rule="nonzero"/><g clip-path="url(#2c8c0ded38)"><path fill="#702792" d="M 23.292969 7.285156 C 23.28125 7.21875 23.261719 7.152344 23.234375 7.085938 C 22.742188 5.828125 19.730469 5.199219 17.304688 5.199219 C 17.304688 5.199219 12.714844 5.117188 12.085938 6.929688 C 12.042969 7.054688 12.015625 7.1875 12.015625 7.332031 C 12 8.066406 12.34375 8.609375 12.902344 9.003906 C 14.046875 9.808594 16.089844 10.007812 17.863281 9.976562 C 19.226562 9.953125 20.691406 9.609375 21.757812 9.085938 C 22.757812 8.601562 23.40625 7.960938 23.292969 7.285156 Z M 23.292969 7.285156 " fill-opacity="1" fill-rule="nonzero"/></g><path fill="#fbc751" d="M 16.039062 22.449219 C 14.203125 19.089844 10.394531 21.121094 13.136719 24.429688 C 13.875 25.316406 14.898438 26.371094 16.304688 27.328125 C 17.4375 26.578125 21.089844 22.476562 19.554688 20.980469 C 17.589844 19.058594 16.039062 22.449219 16.039062 22.449219 Z M 16.039062 22.449219 " fill-opacity="1" fill-rule="nonzero"/><g clip-path="url(#8374a426cf)"><g clip-path="url(#55fec584ae)"><g clip-path="url(#e5d1c5cd7a)"><path fill="#000000" d="M 16.660156 13.613281 C 17.105469 12.964844 17.019531 11.820312 16.292969 11.324219 C 15.5625 10.824219 14.46875 11.160156 14.023438 11.8125 C 13.578125 12.460938 14.535156 12.332031 15.261719 12.828125 C 15.988281 13.328125 16.214844 14.265625 16.660156 13.613281 " fill-opacity="1" fill-rule="nonzero"/></g></g></g><g clip-path="url(#55c24e7605)"><g clip-path="url(#5a843f67aa)"><g clip-path="url(#2d2cf607c2)"><path fill="#000000" d="M 15.96875 13.378906 C 16.082031 13.515625 16.183594 13.632812 16.269531 13.695312 C 16.332031 13.738281 16.410156 13.789062 16.570312 13.554688 C 16.976562 12.964844 16.914062 11.875 16.234375 11.410156 C 15.550781 10.945312 14.515625 11.28125 14.109375 11.871094 C 13.949219 12.109375 14.027344 12.160156 14.089844 12.203125 C 14.179688 12.265625 14.324219 12.3125 14.496094 12.371094 C 14.742188 12.453125 15.046875 12.554688 15.320312 12.742188 C 15.597656 12.929688 15.800781 13.179688 15.96875 13.378906 Z M 13.933594 11.753906 C 14.402344 11.070312 15.558594 10.695312 16.351562 11.234375 C 17.144531 11.777344 17.214844 12.992188 16.746094 13.675781 C 16.5625 13.945312 16.359375 14.011719 16.148438 13.867188 C 16.039062 13.792969 15.929688 13.660156 15.804688 13.511719 C 15.640625 13.3125 15.453125 13.085938 15.203125 12.917969 C 14.953125 12.746094 14.675781 12.652344 14.429688 12.570312 C 14.242188 12.507812 14.085938 12.453125 13.972656 12.378906 C 13.761719 12.234375 13.75 12.023438 13.933594 11.753906 " fill-opacity="1" fill-rule="nonzero"/></g></g></g><g clip-path="url(#9b8a3bfd57)"><g clip-path="url(#5e182af219)"><g clip-path="url(#51d88a6562)"><path fill="#fbc122" d="M 15.429688 12.539062 C 16.492188 13.265625 16.816406 14.640625 15.921875 15.949219 C 15.097656 17.15625 13.796875 17.734375 12.75 17.234375 C 12.664062 17.191406 12.082031 16.789062 12 16.710938 C 11.183594 15.910156 11.257812 14.515625 12.074219 13.320312 C 12.96875 12.011719 14.371094 11.8125 15.429688 12.539062 " fill-opacity="1" fill-rule="nonzero"/></g></g></g><g clip-path="url(#8af51295aa)"><g clip-path="url(#49d3177ab1)"><g clip-path="url(#03267fe1e0)"><g clip-path="url(#aef567d7c3)"><g clip-path="url(#6ddaa360a2)"><path fill="#000000" d="M 12.101562 13.457031 C 11.296875 14.636719 11.261719 15.976562 12.015625 16.714844 C 12.136719 16.832031 12.648438 17.171875 12.738281 17.214844 C 13.707031 17.675781 14.957031 17.164062 15.773438 15.96875 C 16.582031 14.785156 16.390625 13.445312 15.3125 12.703125 C 14.230469 11.964844 12.910156 12.273438 12.101562 13.457031 Z M 11.882812 16.929688 C 11.875 16.890625 11.855469 16.855469 11.828125 16.824219 C 11.433594 16.417969 11.238281 15.871094 11.257812 15.238281 C 11.277344 14.613281 11.515625 13.9375 11.925781 13.335938 C 12.371094 12.6875 12.953125 12.273438 13.609375 12.140625 C 14.230469 12.011719 14.878906 12.148438 15.433594 12.527344 C 15.984375 12.90625 16.347656 13.460938 16.457031 14.085938 C 16.566406 14.746094 16.394531 15.441406 15.949219 16.089844 C 15.101562 17.332031 13.800781 17.878906 12.753906 17.453125 C 12.699219 17.433594 12.640625 17.433594 12.585938 17.457031 C 12.265625 17.59375 11.914062 18.042969 11.8125 17.910156 C 11.671875 17.722656 11.953125 17.257812 11.882812 16.929688 " fill-opacity="1" fill-rule="nonzero"/></g></g></g></g></g><g clip-path="url(#e0b82e2585)"><g clip-path="url(#aee0b1243a)"><g clip-path="url(#15c7ac5799)"><path fill="#000000" d="M 11.453125 15.117188 C 13.675781 15.507812 14.535156 17.136719 14.542969 17.152344 L 15.40625 16.648438 C 15.367188 16.5625 14.332031 14.605469 11.671875 14.136719 L 11.453125 15.117188 " fill-opacity="1" fill-rule="nonzero"/></g></g></g><g clip-path="url(#fb4a9f863f)"><g clip-path="url(#7b004bb65b)"><g clip-path="url(#563f898bd7)"><path fill="#000000" d="M 12.023438 13.269531 C 14.257812 13.648438 15.976562 15.839844 15.984375 15.855469 L 16.34375 14.875 C 16.300781 14.789062 15.671875 12.917969 13.003906 12.464844 L 12.023438 13.269531 " fill-opacity="1" fill-rule="nonzero"/></g></g></g><g clip-path="url(#9db5de55ef)"><g clip-path="url(#e31728418b)"><g clip-path="url(#43134999be)"><path fill="#000000" d="M 15.339844 11.167969 L 15.527344 11.265625 C 15.535156 11.253906 15.679688 10.894531 15.765625 10.480469 C 15.890625 9.886719 15.832031 9.496094 15.589844 9.289062 C 15.355469 9.085938 15 9.085938 14.496094 9.28125 L 14.613281 9.449219 C 15.027344 9.285156 15.324219 9.269531 15.472656 9.398438 C 15.792969 9.671875 15.5625 10.628906 15.339844 11.167969 " fill-opacity="1" fill-rule="nonzero"/></g></g></g><g clip-path="url(#851b992ae6)"><g clip-path="url(#09c0384aac)"><g clip-path="url(#8447822080)"><path fill="#000000" d="M 14.609375 9.113281 C 14.414062 9.253906 14.371094 9.484375 14.511719 9.625 C 14.652344 9.765625 14.921875 9.765625 15.117188 9.625 C 15.3125 9.484375 15.359375 9.253906 15.21875 9.109375 C 15.078125 8.96875 14.804688 8.96875 14.609375 9.113281 " fill-opacity="1" fill-rule="nonzero"/></g></g></g><g clip-path="url(#323abcd364)"><g clip-path="url(#3bf5b350a9)"><g clip-path="url(#6631e25c55)"><path fill="#000000" d="M 16.742188 12.125 L 16.582031 11.988281 C 16.59375 11.976562 16.875 11.710938 17.230469 11.480469 C 17.738281 11.152344 18.121094 11.0625 18.40625 11.214844 C 18.675781 11.359375 18.808594 11.691406 18.804688 12.230469 L 18.609375 12.179688 C 18.609375 11.738281 18.519531 11.453125 18.34375 11.359375 C 17.972656 11.164062 17.164062 11.726562 16.742188 12.125 " fill-opacity="1" fill-rule="nonzero"/></g></g></g><g clip-path="url(#5b54eb9ffc)"><g clip-path="url(#50d72581e2)"><g clip-path="url(#a888381d15)"><path fill="#000000" d="M 18.925781 12.0625 C 18.863281 12.296875 18.664062 12.421875 18.480469 12.339844 C 18.300781 12.261719 18.199219 12.007812 18.261719 11.773438 C 18.324219 11.542969 18.519531 11.417969 18.703125 11.496094 C 18.886719 11.574219 18.984375 11.828125 18.925781 12.0625 " fill-opacity="1" fill-rule="nonzero"/></g></g></g><g clip-path="url(#0384ca107c)"><g clip-path="url(#06031ea728)"><g clip-path="url(#264a59c579)"><path fill="#1cd4f0" d="M 14.910156 14.5625 C 14.910156 14.5625 17.246094 14.558594 17.714844 15.917969 C 18.179688 17.28125 17.316406 18.050781 16.3125 17.714844 C 15.308594 17.378906 14.910156 14.5625 14.910156 14.5625 " fill-opacity="1" fill-rule="nonzero"/><path fill="#000000" d="M 15.023438 14.664062 C 15.109375 15.164062 15.464844 17.046875 16.183594 17.539062 C 16.238281 17.574219 16.292969 17.601562 16.347656 17.621094 C 16.785156 17.769531 17.207031 17.695312 17.46875 17.417969 C 17.777344 17.097656 17.832031 16.566406 17.625 15.957031 C 17.523438 15.671875 17.328125 15.425781 17.039062 15.226562 C 16.363281 14.765625 15.367188 14.679688 15.023438 14.664062 Z M 14.816406 14.582031 L 14.800781 14.46875 L 14.917969 14.46875 C 14.972656 14.464844 16.285156 14.46875 17.152344 15.0625 C 17.472656 15.28125 17.691406 15.558594 17.804688 15.882812 C 18.039062 16.566406 17.964844 17.175781 17.601562 17.550781 C 17.28125 17.882812 16.789062 17.980469 16.277344 17.808594 C 16.207031 17.785156 16.136719 17.75 16.070312 17.703125 C 15.183594 17.09375 14.832031 14.6875 14.816406 14.582031 " fill-opacity="1" fill-rule="nonzero"/></g></g></g><g clip-path="url(#3bcb2405de)"><g clip-path="url(#af7cdd051a)"><g clip-path="url(#2e34a0972b)"><path fill="#1cd4f0" d="M 14.957031 14.546875 C 14.957031 14.546875 17.519531 12.765625 19.023438 13.792969 C 20.523438 14.820312 20.132812 16.257812 18.785156 16.679688 C 17.4375 17.097656 14.957031 14.546875 14.957031 14.546875 " fill-opacity="1" fill-rule="nonzero"/></g></g></g><g clip-path="url(#28fcc887ed)"><g clip-path="url(#4858fc2435)"><g clip-path="url(#5c5a6b435c)"><g clip-path="url(#8afc55e933)"><g clip-path="url(#9339203261)"><path fill="#000000" d="M 16.457031 13.875 C 15.839844 14.109375 15.320312 14.421875 15.109375 14.558594 C 15.332031 14.777344 15.980469 15.394531 16.710938 15.894531 C 17.585938 16.492188 18.292969 16.730469 18.761719 16.585938 C 19.363281 16.398438 19.777344 15.996094 19.871094 15.503906 C 19.976562 14.933594 19.648438 14.34375 18.964844 13.875 C 18.222656 13.367188 17.191406 13.59375 16.457031 13.875 Z M 14.886719 14.617188 L 14.804688 14.535156 L 14.90625 14.464844 C 14.933594 14.449219 15.566406 14.011719 16.398438 13.695312 C 17.511719 13.269531 18.4375 13.273438 19.078125 13.710938 C 19.824219 14.222656 20.179688 14.882812 20.058594 15.53125 C 19.949219 16.097656 19.480469 16.5625 18.808594 16.773438 C 18.277344 16.9375 17.535156 16.699219 16.601562 16.058594 C 15.679688 15.429688 14.894531 14.625 14.886719 14.617188 " fill-opacity="1" fill-rule="nonzero"/></g></g></g></g></g><g clip-path="url(#032d9f3aee)"><g clip-path="url(#eaabec5433)"><g clip-path="url(#3f3cc9e6a5)"><path fill="#1cd4f0" d="M 13.777344 13.789062 C 13.777344 13.789062 12.929688 11.613281 11.492188 11.675781 C 10.058594 11.738281 9.652344 12.824219 10.332031 13.632812 C 11.011719 14.445312 13.777344 13.789062 13.777344 13.789062 " fill-opacity="1" fill-rule="nonzero"/></g></g></g><g clip-path="url(#db9af7f0dc)"><g clip-path="url(#895459646d)"><g clip-path="url(#2f3e4600f4)"><path fill="#000000" d="M 12.386719 12.050781 C 12.09375 11.855469 11.792969 11.761719 11.492188 11.773438 C 10.847656 11.800781 10.371094 12.046875 10.1875 12.449219 C 10.027344 12.796875 10.109375 13.214844 10.40625 13.566406 C 10.445312 13.613281 10.492188 13.652344 10.542969 13.691406 C 11.261719 14.179688 13.148438 13.824219 13.640625 13.722656 C 13.503906 13.410156 13.058594 12.511719 12.386719 12.050781 Z M 10.433594 13.855469 C 10.363281 13.808594 10.308594 13.757812 10.257812 13.699219 C 9.914062 13.289062 9.824219 12.792969 10.015625 12.375 C 10.234375 11.898438 10.773438 11.609375 11.496094 11.578125 C 11.835938 11.5625 12.175781 11.667969 12.496094 11.886719 C 13.363281 12.476562 13.847656 13.699219 13.867188 13.75 L 13.910156 13.859375 L 13.792969 13.886719 C 13.691406 13.910156 11.324219 14.460938 10.433594 13.855469 " fill-opacity="1" fill-rule="nonzero"/></g></g></g><g clip-path="url(#a2bcf37d85)"><g clip-path="url(#68e8e341ac)"><g clip-path="url(#04135d5d03)"><path fill="#1cd4f0" d="M 13.777344 13.742188 C 13.777344 13.742188 14.5 10.707031 12.996094 9.683594 C 11.492188 8.65625 10.296875 9.546875 10.394531 10.953125 C 10.496094 12.363281 13.777344 13.742188 13.777344 13.742188 " fill-opacity="1" fill-rule="nonzero"/></g></g></g><g clip-path="url(#3ccdd60e4e)"><g clip-path="url(#e7b16ba5a5)"><g clip-path="url(#8fe451da73)"><path fill="#000000" d="M 12.941406 9.765625 C 12.257812 9.300781 11.585938 9.207031 11.09375 9.515625 C 10.671875 9.78125 10.445312 10.3125 10.492188 10.941406 C 10.527344 11.429688 11.007812 12.003906 11.882812 12.597656 C 12.613281 13.097656 13.425781 13.476562 13.710938 13.605469 C 13.761719 13.359375 13.863281 12.761719 13.855469 12.097656 C 13.847656 11.3125 13.683594 10.269531 12.941406 9.765625 Z M 11.769531 12.761719 C 10.835938 12.125 10.339844 11.523438 10.300781 10.964844 C 10.25 10.261719 10.511719 9.660156 11.003906 9.351562 C 11.558594 9 12.308594 9.09375 13.050781 9.597656 C 13.691406 10.035156 14.035156 10.898438 14.046875 12.089844 C 14.054688 12.980469 13.878906 13.730469 13.871094 13.761719 L 13.84375 13.878906 L 13.738281 13.832031 C 13.726562 13.828125 12.6875 13.390625 11.769531 12.761719 " fill-opacity="1" fill-rule="nonzero"/></g></g></g><g clip-path="url(#97d3840998)"><g clip-path="url(#50550f9318)"><g clip-path="url(#7d8a50dec5)"><path fill="#050606" d="M 25.148438 16.285156 C 24.480469 15.871094 23.34375 16.003906 22.875 16.753906 C 22.410156 17.503906 22.796875 18.582031 23.464844 19 C 24.136719 19.414062 23.960938 18.464844 24.425781 17.714844 C 24.890625 16.96875 25.820312 16.699219 25.148438 16.285156 " fill-opacity="1" fill-rule="nonzero"/></g></g></g><g clip-path="url(#d16ece3e9e)"><g clip-path="url(#4cb0ab42f2)"><g clip-path="url(#e7ebde7071)"><path fill="#050606" d="M 24.945312 16.984375 C 25.078125 16.867188 25.191406 16.761719 25.246094 16.671875 C 25.285156 16.605469 25.335938 16.527344 25.09375 16.375 C 24.484375 16 23.402344 16.109375 22.964844 16.808594 C 22.53125 17.511719 22.914062 18.53125 23.523438 18.910156 C 23.765625 19.058594 23.816406 18.976562 23.855469 18.914062 C 23.910156 18.824219 23.953125 18.675781 24.003906 18.503906 C 24.074219 18.253906 24.164062 17.945312 24.339844 17.660156 C 24.511719 17.378906 24.753906 17.160156 24.945312 16.984375 Z M 23.410156 19.089844 C 22.707031 18.652344 22.28125 17.511719 22.789062 16.699219 C 23.292969 15.882812 24.503906 15.757812 25.207031 16.195312 C 25.484375 16.367188 25.558594 16.566406 25.425781 16.78125 C 25.355469 16.898438 25.230469 17.011719 25.085938 17.144531 C 24.894531 17.316406 24.675781 17.515625 24.515625 17.773438 C 24.355469 18.027344 24.277344 18.3125 24.207031 18.558594 C 24.152344 18.746094 24.105469 18.910156 24.035156 19.023438 C 23.898438 19.242188 23.691406 19.261719 23.410156 19.089844 " fill-opacity="1" fill-rule="nonzero"/></g></g></g><g clip-path="url(#7b677f7a1b)"><g clip-path="url(#966e581257)"><g clip-path="url(#dad1a0f041)"><path fill="#fbc122" d="M 24.128906 17.558594 C 24.808594 16.464844 26.167969 16.082031 27.515625 16.917969 C 28.757812 17.691406 29.390625 18.960938 28.9375 20.027344 C 28.898438 20.117188 28.527344 20.71875 28.453125 20.800781 C 27.6875 21.65625 26.289062 21.640625 25.058594 20.878906 C 23.710938 20.042969 23.453125 18.652344 24.128906 17.558594 " fill-opacity="1" fill-rule="nonzero"/></g></g></g><g clip-path="url(#35148c8ed0)"><g clip-path="url(#b6c2530a75)"><g clip-path="url(#6cbd07e3fc)"><g clip-path="url(#c7db53e14d)"><g clip-path="url(#620222d95a)"><path fill="#050606" d="M 25.195312 20.84375 C 26.410156 21.597656 27.746094 21.574219 28.453125 20.785156 C 28.566406 20.660156 28.882812 20.132812 28.917969 20.042969 C 29.339844 19.054688 28.773438 17.828125 27.539062 17.066406 C 26.324219 16.308594 24.992188 16.558594 24.300781 17.671875 C 23.609375 18.785156 23.976562 20.089844 25.195312 20.84375 Z M 28.671875 20.910156 C 28.632812 20.917969 28.597656 20.941406 28.570312 20.96875 C 28.183594 21.378906 27.644531 21.601562 27.011719 21.609375 C 26.386719 21.617188 25.703125 21.410156 25.082031 21.023438 C 24.414062 20.609375 23.976562 20.046875 23.8125 19.398438 C 23.65625 18.78125 23.765625 18.128906 24.121094 17.558594 C 24.472656 16.988281 25.011719 16.601562 25.628906 16.46875 C 26.285156 16.328125 26.984375 16.46875 27.652344 16.882812 C 28.929688 17.679688 29.535156 18.949219 29.160156 20.015625 C 29.140625 20.070312 29.144531 20.132812 29.167969 20.183594 C 29.320312 20.5 29.785156 20.832031 29.65625 20.9375 C 29.476562 21.082031 29 20.824219 28.671875 20.910156 " fill-opacity="1" fill-rule="nonzero"/></g></g></g></g></g><g clip-path="url(#48c8199fd8)"><g clip-path="url(#8eaa71324f)"><g clip-path="url(#74bae9ea28)"><path fill="#050606" d="M 26.882812 21.421875 C 27.171875 19.179688 28.761719 18.25 28.777344 18.242188 L 28.234375 17.402344 C 28.152344 17.445312 26.242188 18.566406 25.894531 21.242188 L 26.882812 21.421875 " fill-opacity="1" fill-rule="nonzero"/></g></g></g><g clip-path="url(#137e301e13)"><g clip-path="url(#5a7b6a4d82)"><g clip-path="url(#c25c2de639)"><path fill="#050606" d="M 25.011719 20.933594 C 25.292969 18.683594 27.402344 16.867188 27.417969 16.859375 L 26.421875 16.546875 C 26.339844 16.589844 24.496094 17.304688 24.164062 19.988281 L 25.011719 20.933594 " fill-opacity="1" fill-rule="nonzero"/></g></g></g><g clip-path="url(#6a4f28f2b6)"><g clip-path="url(#aed5289abc)"><g clip-path="url(#129a9e1d73)"><path fill="#050606" d="M 22.765625 17.710938 L 22.855469 17.519531 C 22.839844 17.515625 22.476562 17.382812 22.058594 17.316406 C 21.460938 17.21875 21.074219 17.296875 20.875 17.546875 C 20.683594 17.789062 20.699219 18.144531 20.917969 18.640625 L 21.078125 18.515625 C 20.898438 18.109375 20.867188 17.8125 20.988281 17.65625 C 21.25 17.324219 22.21875 17.515625 22.765625 17.710938 " fill-opacity="1" fill-rule="nonzero"/></g></g></g><g clip-path="url(#3890a44c3f)"><g clip-path="url(#7cc0964ddb)"><g clip-path="url(#17f3281743)"><path fill="#050606" d="M 20.742188 18.535156 C 20.890625 18.722656 21.125 18.757812 21.257812 18.609375 C 21.394531 18.460938 21.382812 18.191406 21.230469 18.003906 C 21.082031 17.8125 20.851562 17.78125 20.714844 17.925781 C 20.578125 18.074219 20.59375 18.34375 20.742188 18.535156 " fill-opacity="1" fill-rule="nonzero"/></g></g></g><g clip-path="url(#bfbd00bdf9)"><g clip-path="url(#97310e3175)"><g clip-path="url(#9314773e91)"><path fill="#050606" d="M 23.660156 16.269531 L 23.527344 16.433594 C 23.515625 16.421875 23.238281 16.15625 22.992188 15.808594 C 22.640625 15.316406 22.535156 14.9375 22.675781 14.648438 C 22.804688 14.371094 23.132812 14.222656 23.671875 14.203125 L 23.628906 14.402344 C 23.1875 14.417969 22.90625 14.523438 22.824219 14.703125 C 22.640625 15.082031 23.238281 15.867188 23.660156 16.269531 " fill-opacity="1" fill-rule="nonzero"/></g></g></g><g clip-path="url(#800f594dad)"><g clip-path="url(#c5ce570bdf)"><g clip-path="url(#7e01c93703)"><path fill="#050606" d="M 23.5 14.089844 C 23.734375 14.140625 23.867188 14.335938 23.796875 14.519531 C 23.726562 14.707031 23.476562 14.816406 23.238281 14.765625 C 23.003906 14.714844 22.871094 14.523438 22.941406 14.335938 C 23.015625 14.148438 23.261719 14.039062 23.5 14.089844 " fill-opacity="1" fill-rule="nonzero"/></g></g></g><g clip-path="url(#1db77bdcdd)"><g clip-path="url(#f23d7fb3b2)"><g clip-path="url(#c4f0cbe229)"><path fill="#1cd4f0" d="M 26.175781 17.988281 C 26.175781 17.988281 26.066406 15.65625 27.40625 15.128906 C 28.742188 14.601562 29.554688 15.433594 29.261719 16.449219 C 28.96875 17.464844 26.175781 17.988281 26.175781 17.988281 " fill-opacity="1" fill-rule="nonzero"/></g></g></g><g clip-path="url(#d5cc2045eb)"><g clip-path="url(#7b8c75fff8)"><g clip-path="url(#d3b558f9e0)"><path fill="#050606" d="M 26.273438 17.871094 C 26.765625 17.765625 28.632812 17.324219 29.089844 16.585938 C 29.125 16.53125 29.152344 16.472656 29.167969 16.417969 C 29.292969 15.972656 29.199219 15.558594 28.914062 15.308594 C 28.582031 15.015625 28.046875 14.980469 27.445312 15.21875 C 27.164062 15.328125 26.929688 15.535156 26.742188 15.835938 C 26.3125 16.527344 26.273438 17.53125 26.273438 17.871094 Z M 26.199219 18.082031 L 26.082031 18.105469 L 26.078125 17.988281 C 26.074219 17.933594 26.019531 16.621094 26.574219 15.730469 C 26.78125 15.398438 27.046875 15.167969 27.363281 15.042969 C 28.035156 14.777344 28.648438 14.824219 29.039062 15.167969 C 29.386719 15.472656 29.503906 15.960938 29.355469 16.480469 C 29.335938 16.550781 29.304688 16.621094 29.261719 16.691406 C 28.691406 17.605469 26.300781 18.0625 26.199219 18.082031 " fill-opacity="1" fill-rule="nonzero"/></g></g></g><g clip-path="url(#e962f0d582)"><g clip-path="url(#c63a107de4)"><g clip-path="url(#4cb75a277d)"><path fill="#1cd4f0" d="M 26.15625 17.945312 C 26.15625 17.945312 24.265625 15.464844 25.222656 13.917969 C 26.183594 12.371094 27.636719 12.699219 28.117188 14.023438 C 28.59375 15.351562 26.15625 17.945312 26.15625 17.945312 " fill-opacity="1" fill-rule="nonzero"/></g></g></g><g clip-path="url(#000e557ec7)"><g clip-path="url(#097cd78375)"><g clip-path="url(#f3450873ca)"><g clip-path="url(#33f0aa0844)"><g clip-path="url(#bb457d5104)"><path fill="#050606" d="M 25.417969 16.476562 C 25.683594 17.082031 26.015625 17.585938 26.160156 17.792969 C 26.371094 17.558594 26.957031 16.882812 27.425781 16.128906 C 27.984375 15.230469 28.191406 14.511719 28.023438 14.050781 C 27.8125 13.460938 27.386719 13.066406 26.894531 12.996094 C 26.320312 12.910156 25.742188 13.265625 25.308594 13.96875 C 24.832031 14.734375 25.105469 15.753906 25.417969 16.476562 Z M 26.230469 18.011719 L 26.152344 18.09375 L 26.078125 18 C 26.058594 17.972656 25.59375 17.359375 25.242188 16.542969 C 24.765625 15.449219 24.730469 14.523438 25.140625 13.863281 C 25.613281 13.097656 26.261719 12.710938 26.910156 12.804688 C 27.484375 12.886719 27.96875 13.332031 28.207031 14 C 28.398438 14.523438 28.191406 15.273438 27.59375 16.234375 C 27.007812 17.179688 26.238281 18.003906 26.230469 18.011719 " fill-opacity="1" fill-rule="nonzero"/></g></g></g></g></g><g clip-path="url(#4370dcbd36)"><g clip-path="url(#193684eaa1)"><g clip-path="url(#3da67ee365)"><path fill="#1cd4f0" d="M 25.453125 19.15625 C 25.453125 19.15625 23.316406 20.097656 23.441406 21.53125 C 23.566406 22.964844 24.671875 23.320312 25.449219 22.605469 C 26.230469 21.890625 25.453125 19.15625 25.453125 19.15625 " fill-opacity="1" fill-rule="nonzero"/></g></g></g><g clip-path="url(#4afaa0a260)"><g clip-path="url(#c81886d462)"><g clip-path="url(#0ce91758d1)"><path fill="#050606" d="M 23.777344 20.625 C 23.59375 20.921875 23.511719 21.226562 23.539062 21.527344 C 23.597656 22.171875 23.863281 22.636719 24.273438 22.804688 C 24.625 22.945312 25.039062 22.847656 25.382812 22.535156 C 25.425781 22.496094 25.464844 22.445312 25.496094 22.390625 C 25.953125 21.652344 25.515625 19.78125 25.390625 19.292969 C 25.085938 19.445312 24.207031 19.929688 23.777344 20.625 Z M 25.667969 22.496094 C 25.625 22.566406 25.574219 22.625 25.519531 22.675781 C 25.125 23.039062 24.632812 23.152344 24.207031 22.976562 C 23.722656 22.78125 23.40625 22.253906 23.34375 21.535156 C 23.316406 21.191406 23.402344 20.851562 23.609375 20.519531 C 24.160156 19.628906 25.359375 19.09375 25.410156 19.070312 L 25.515625 19.023438 L 25.546875 19.136719 C 25.574219 19.234375 26.230469 21.578125 25.667969 22.496094 " fill-opacity="1" fill-rule="nonzero"/></g></g></g><g clip-path="url(#7a6cbcebce)"><g clip-path="url(#fecbf47c5b)"><g clip-path="url(#5410c74fb7)"><path fill="#1cd4f0" d="M 25.40625 19.15625 C 25.40625 19.15625 22.339844 18.570312 21.382812 20.117188 C 20.429688 21.664062 21.367188 22.824219 22.769531 22.660156 C 24.171875 22.496094 25.40625 19.15625 25.40625 19.15625 " fill-opacity="1" fill-rule="nonzero"/></g></g></g><g clip-path="url(#5585b4df24)"><g clip-path="url(#b3bd227caa)"><g clip-path="url(#86331657f2)"><path fill="#050606" d="M 21.46875 20.171875 C 21.035156 20.875 20.972656 21.550781 21.300781 22.027344 C 21.585938 22.4375 22.128906 22.640625 22.753906 22.566406 C 23.242188 22.507812 23.792969 22.003906 24.347656 21.105469 C 24.8125 20.347656 25.15625 19.523438 25.269531 19.230469 C 25.023438 19.191406 24.421875 19.117188 23.761719 19.152344 C 22.976562 19.195312 21.941406 19.40625 21.46875 20.171875 Z M 24.515625 21.207031 C 23.921875 22.171875 23.339844 22.691406 22.785156 22.753906 C 22.085938 22.835938 21.472656 22.601562 21.140625 22.125 C 20.769531 21.585938 20.824219 20.835938 21.300781 20.066406 C 21.707031 19.40625 22.550781 19.027344 23.742188 18.964844 C 24.632812 18.917969 25.386719 19.058594 25.417969 19.0625 L 25.539062 19.085938 L 25.5 19.195312 C 25.496094 19.203125 25.101562 20.261719 24.515625 21.207031 " fill-opacity="1" fill-rule="nonzero"/></g></g></g></svg>